<svg xmlns="http://www.w3.org/2000/svg" width="54" height="54" viewBox="0 0 54 54"><g transform="translate(2105 15007)"><g transform="translate(-2105 -15007)" fill="#888" stroke="#ddd" stroke-width="2" opacity="0"><circle cx="27" cy="27" r="27" stroke="none"/><circle cx="27" cy="27" r="26" fill="none"/></g><path d="M4.333,11.967V4.5A1.167,1.167,0,0,1,5.5,3.333h5.833V1H16V3.333h5.833A1.167,1.167,0,0,1,23,4.5v7.467l1.267.38a1.167,1.167,0,0,1,.8,1.4l-1.769,7.079A5.824,5.824,0,0,1,18.333,18.5,5.833,5.833,0,0,1,9,18.5a5.824,5.824,0,0,1-4.961,2.326L2.271,13.747a1.167,1.167,0,0,1,.8-1.4Zm2.333-.7,7-2.1,3.213.964,2.111.633,1.677.5v-5.6h-14v5.6Zm-2.333,11.9A6.974,6.974,0,0,0,9,21.384a7,7,0,0,0,9.333,0A6.974,6.974,0,0,0,23,23.167h2.333V25.5H23a9.29,9.29,0,0,1-4.667-1.248,9.347,9.347,0,0,1-9.333,0A9.29,9.29,0,0,1,4.333,25.5H2V23.167Z" transform="translate(-2091.667 -14993.834)" fill="#fff"/></g></svg>