<svg xmlns="http://www.w3.org/2000/svg" width="54" height="54" viewBox="0 0 54 54"><g transform="translate(2531 15007)"><g transform="translate(-2531 -15007)" fill="#888" stroke="#ddd" stroke-width="2" opacity="0"><circle cx="27" cy="27" r="27" stroke="none"/><circle cx="27" cy="27" r="26" fill="none"/></g><path d="M10.368,9.987l4.273,3.276a1.4,1.4,0,0,1-1.695,2.216L9.923,13.164ZM8.781,0A2.687,2.687,0,1,1,6.095,2.687,2.688,2.688,0,0,1,8.781,0m.067,15.593a1.17,1.17,0,0,0,.491,1.266l2.149,1.86a2.6,2.6,0,0,1,.863,1.705l.47,6.293a1.679,1.679,0,0,1-3.348.248l-.444-5.931L5.522,18.021A3.2,3.2,0,0,1,4.38,14.73L5,10.344l-.9.475L2.731,15.267a1.406,1.406,0,0,1-1.746.925A1.406,1.406,0,0,1,.06,14.446L1.466,9.879A2.552,2.552,0,0,1,2.68,8.411L5.408,6.975A5.563,5.563,0,0,1,7.48,6.148,2.256,2.256,0,0,1,9.815,8.721ZM2.726,28.442a1.685,1.685,0,0,0,2.113-1.085L7.1,20.33,5.051,18.569a4.812,4.812,0,0,1-.682-.7L1.646,26.329a1.682,1.682,0,0,0,1.08,2.113" transform="translate(-2512 -14993.999)" fill="#fff" fill-rule="evenodd"/></g></svg>