<svg xmlns="http://www.w3.org/2000/svg" xmlns:xlink="http://www.w3.org/1999/xlink" width="54" height="54" viewBox="0 0 54 54"><defs><filter id="a" x="16.655" y="9.361" width="21.323" height="22.606" filterUnits="userSpaceOnUse"><feOffset dy="3" input="SourceAlpha"/><feGaussianBlur stdDeviation="3" result="b"/><feFlood flood-opacity="0.161"/><feComposite operator="in" in2="b"/><feComposite in="SourceGraphic"/></filter><filter id="c" x="5" y="9.001" width="44" height="42.338" filterUnits="userSpaceOnUse"><feOffset dy="3" input="SourceAlpha"/><feGaussianBlur stdDeviation="3" result="d"/><feFlood flood-color="#676563"/><feComposite operator="in" in2="d"/><feComposite in="SourceGraphic"/></filter></defs><g transform="translate(2317 15085)"><g transform="translate(-2317 -15085)" fill="#888" stroke="#ddd" stroke-width="2" opacity="0"><circle cx="27" cy="27" r="27" stroke="none"/><circle cx="27" cy="27" r="26" fill="none"/></g><g transform="translate(-3425 -15668)"><g transform="matrix(1, 0, 0, 1, 1108, 583)" filter="url(#a)"><path d="M24.2,5.253S23.824.7,22.95.648C21.841.577,21.1,3.663,20.873,5.158a6.375,6.375,0,0,1,3.323.095" transform="translate(4.78 14.71)" fill="#fff"/></g><g transform="matrix(1, 0, 0, 1, 1108, 583)" filter="url(#c)"><path d="M22.225,10.911c2.133-3.305,1.273-7.957,1.027-9.587C23-.39,21.8-.491,20.394,1.324a61.853,61.853,0,0,1-4.121,5.031,12.873,12.873,0,0,0-3.624-.586A6.472,6.472,0,0,0,8.065,7.762a7.473,7.473,0,0,1-2.574,1.6C4,9.828.623,10.007.3,10.693c-1.228,1.876,1.681,6.483,2.412,7.4s5.651,1.932,6.9,2.211c2.4.53,2.635,2.943,3.406,3.97.017,0,.039.006.061.006,4.244.508,12.083-2.228,12.92-5.891a21.691,21.691,0,0,0-3.775-7.476" transform="translate(14 15)" fill="#fff"/></g></g></g></svg>