<svg xmlns="http://www.w3.org/2000/svg" xmlns:xlink="http://www.w3.org/1999/xlink" width="60" height="60" viewBox="0 0 60 60"><defs><filter id="a" x="0" y="0" width="60" height="60" filterUnits="userSpaceOnUse"><feOffset dy="3" input="SourceAlpha"/><feGaussianBlur stdDeviation="3" result="b"/><feFlood flood-opacity="0.322"/><feComposite operator="in" in2="b"/><feComposite in="SourceGraphic"/></filter></defs><g transform="translate(-967 -524)"><path d="M9,0l9,22H0Z" transform="translate(1006 583) rotate(180)" fill="#554aff"/><g transform="matrix(1, 0, 0, 1, 967, 524)" filter="url(#a)"><g transform="translate(9 6)" fill="#2c2685"><path d="M 21 41 C 18.29957962036133 41 15.68045997619629 40.47134017944336 13.21539974212646 39.4287109375 C 10.83393955230713 38.42144012451172 8.694950103759766 36.97922134399414 6.857860088348389 35.14213943481445 C 5.020780086517334 33.30504989624023 3.57856011390686 31.16605949401855 2.571290016174316 28.78459930419922 C 1.52866005897522 26.31954002380371 1 23.70042037963867 1 21 C 1 18.29957962036133 1.52866005897522 15.68045997619629 2.571290016174316 13.21539974212646 C 3.57856011390686 10.83393955230713 5.020780086517334 8.694950103759766 6.857860088348389 6.857860088348389 C 8.694950103759766 5.020780086517334 10.83393955230713 3.57856011390686 13.21539974212646 2.571290016174316 C 15.68045997619629 1.52866005897522 18.29957962036133 1 21 1 C 23.70042037963867 1 26.31954002380371 1.52866005897522 28.78459930419922 2.571290016174316 C 31.16605949401855 3.57856011390686 33.30504989624023 5.020780086517334 35.14213943481445 6.857860088348389 C 36.97922134399414 8.694950103759766 38.42144012451172 10.83393955230713 39.4287109375 13.21539974212646 C 40.47134017944336 15.68045997619629 41 18.29957962036133 41 21 C 41 23.70042037963867 40.47134017944336 26.31954002380371 39.4287109375 28.78459930419922 C 38.42144012451172 31.16605949401855 36.97922134399414 33.30504989624023 35.14213943481445 35.14213943481445 C 33.30504989624023 36.97922134399414 31.16605949401855 38.42144012451172 28.78459930419922 39.4287109375 C 26.31954002380371 40.47134017944336 23.70042037963867 41 21 41 Z" stroke="none"/><path d="M 21 2 C 15.92491912841797 2 11.15360069274902 3.976341247558594 7.564968109130859 7.564968109130859 C 3.976341247558594 11.15360069274902 2 15.92491912841797 2 21 C 2 26.07508087158203 3.976341247558594 30.84640121459961 7.564968109130859 34.43502807617188 C 11.15360069274902 38.02365875244141 15.92491912841797 40 21 40 C 26.07508087158203 40 30.84640121459961 38.02365875244141 34.43502807617188 34.43502807617188 C 38.02365875244141 30.84640121459961 40 26.07508087158203 40 21 C 40 15.92491912841797 38.02365875244141 11.15360069274902 34.43502807617188 7.564968109130859 C 30.84640121459961 3.976341247558594 26.07508087158203 2 21 2 M 21 0 C 32.59798049926758 0 42 9.402019500732422 42 21 C 42 32.59798049926758 32.59798049926758 42 21 42 C 9.402019500732422 42 0 32.59798049926758 0 21 C 0 9.402019500732422 9.402019500732422 0 21 0 Z" stroke="none" fill="#fff"/></g></g><g transform="translate(988 542)"><path d="M0,0H18V18H0Z" fill="none"/><path d="M16.5,11.125V16.75a.75.75,0,0,1-.75.75H15a.75.75,0,0,1-.75-.75V16H3.75v.75A.75.75,0,0,1,3,17.5H2.25a.75.75,0,0,1-.75-.75V11.125l-.932-.233A.75.75,0,0,1,0,10.165v-.54A.375.375,0,0,1,.375,9.25H1.781l1.6-4.276A1.5,1.5,0,0,1,4.79,4h8.421a1.5,1.5,0,0,1,1.4.974l1.6,4.276h1.406A.375.375,0,0,1,18,9.625v.54a.75.75,0,0,1-.568.727ZM3,12.25v1.5a.75.75,0,0,0,.75.75H6.184a.375.375,0,0,0,.33-.552Q5.608,12.249,3,12.25Zm12,0q-2.607,0-3.515,1.7a.375.375,0,0,0,.331.552H14.25a.75.75,0,0,0,.75-.75ZM4.5,5.5,3.329,9.013A.75.75,0,0,0,4.04,10h9.92a.75.75,0,0,0,.711-.987L13.5,5.5Z" transform="translate(0 -1)" fill="#fff"/></g></g></svg>