<svg xmlns="http://www.w3.org/2000/svg" width="54" height="54" viewBox="0 0 54 54"><g transform="translate(2034 15007)"><g transform="translate(-2034 -15007)" fill="#888" stroke="#ddd" stroke-width="2" opacity="0"><circle cx="27" cy="27" r="27" stroke="none"/><circle cx="27" cy="27" r="26" fill="none"/></g><path d="M3.658,20a1.458,1.458,0,1,1,0-2.893H18.229C20.39,17.1,20.321,20,18.111,20Zm9.4-9.067c-.568,0-.629-.248-.865-.552-1.759-2.272-2.178-2.2-2.073-4.4.05-1.041.752-.728,1.646-.737,1.259-.012,1.083-.261,1.881.626a9.322,9.322,0,0,1,1.794,3.39c.576,1.94.919,1.671-2.384,1.671M23.54,16.436l.57,2.02c.091.956-.729,1.007-.611,2a2.669,2.669,0,0,0,1.657-.6l1.352-.772c1.414-.883,4.388-2.986,3.228-4.74-.842-1.274-2.122-1.244-2.561-1.667-.311-.3-.329-1.1-.541-1.708l-.676-2.61c-.561-1.575-.9-3.433-1.4-5.03A13.35,13.35,0,0,0,23.85.843a1.781,1.781,0,0,0-3.291,1.149c0,1.974,2.115.327-2.729,4.418-1.611,1.361-.721-.121-3.071-2.355a2.093,2.093,0,0,0-1.93-.847H8.472c-.8.016-.971.021-1.032.31.008.877.074.653.67.944l.005,2.581c0,1.352-2.831.048-4.466.934a3.631,3.631,0,0,0-2,3.413,5.646,5.646,0,0,0,.153,2.087c.771.028,1.878-.041,2.792-.041,1.733,0,2.36-.265,2.36.892,0,1.439-1.752.062-4.593.937a2.131,2.131,0,0,0-.959.456,2.335,2.335,0,0,0-.734.673c-1.728,2.605.152,5.627,2.5,5.627H18.7a4.009,4.009,0,0,0,1.68-.6l.145-.1.928-1.065a3.814,3.814,0,0,0-.09-3.541c-1.273-1.8-2.781-1.748-5.013-1.736-.664,0-1.48.192-1.48-.535,0-.682-.088-.868.654-.961l3.2-.049L21.365,8.66c.27-.493.492-1.145,1.056-1.341a10.939,10.939,0,0,1,.979,2.2c.209.69.791,1.629.675,2.312-1.077.214-1.823,0-1.311,1.491.329.958.615,2.565.775,3.11" transform="translate(-2022 -14991)" fill="#fff" fill-rule="evenodd"/></g></svg>