<svg xmlns="http://www.w3.org/2000/svg" width="54" height="54" viewBox="0 0 54 54"><g transform="translate(2389 15007)"><g transform="translate(-2389 -15007)" fill="#888" stroke="#ddd" stroke-width="2" opacity="0"><circle cx="27" cy="27" r="27" stroke="none"/><circle cx="27" cy="27" r="26" fill="none"/></g><path d="M19.348,8.44h3.44l3.44,4.651v6.816H23.894a4.014,4.014,0,0,1-7.947,0H10.134a4.014,4.014,0,0,1-7.947,0H1V6.147A1.147,1.147,0,0,1,2.147,5H18.2a1.147,1.147,0,0,1,1.147,1.147Zm0,2.293v3.44h4.587v-.327l-2.3-3.113Z" transform="translate(-2375 -14992.999)" fill="#fff"/></g></svg>