<svg xmlns="http://www.w3.org/2000/svg" xmlns:xlink="http://www.w3.org/1999/xlink" width="56" height="44" viewBox="0 0 56 44"><defs><clipPath id="a"><rect width="39.517" height="40" fill="none"/></clipPath></defs><g transform="translate(-167 -306)"><ellipse cx="28" cy="5" rx="28" ry="5" transform="translate(167 340)" fill="#2f27af" opacity="0.15"/><g transform="translate(176 306)"><g transform="translate(0 0)" clip-path="url(#a)"><path d="M34.963,3.181c.8,0,1.374.279,1.374,1.278v22.7c0,.755-.308,1.178-1.175,1.178H12.2s-6.736,7.463-7,7.741-.742.839-1.228.744S3.2,36.3,3.2,35.325V4.854c0-1.222.323-1.673,1.192-1.673ZM34.666,0H4.883C1.482,0,.03,1.452.03,4.854L0,35.322C0,38.537,2.06,40,3.976,40a4.705,4.705,0,0,0,3.549-1.8l6.081-6.684H34.666c3.4,0,4.851-1.451,4.851-4.854V4.854c0-3.4-1.451-4.854-4.851-4.854" transform="translate(0 0)" fill="#1c3a54"/><path d="M9.6,9.882v7.626h3.745v5.465s3.879-.528,3.879-4.064V9.882Z" transform="translate(0.057 0.059)" fill="#2f27af"/><path d="M21.313,9.882v7.626h3.745v5.465s3.878-.528,3.878-4.064V9.882Z" transform="translate(0.127 0.059)" fill="#2f27af"/></g></g></g></svg>