<svg xmlns="http://www.w3.org/2000/svg" xmlns:xlink="http://www.w3.org/1999/xlink" width="24" height="24" viewBox="0 0 24 24"><defs><clipPath id="a"><rect width="18" height="18"/></clipPath></defs><g transform="translate(13505 11740)"><g transform="translate(-13502 -11737)"><g clip-path="url(#a)"><path d="M9.567.225a.831.831,0,0,0-1.136,0L.27,7.838A.851.851,0,0,0,0,8.461v8.692A.843.843,0,0,0,.838,18H6.515V13.171a2.484,2.484,0,1,1,4.967,0V18h5.68A.843.843,0,0,0,18,17.153V8.461a.851.851,0,0,0-.27-.623Z" transform="translate(0 0)"/></g></g><rect width="24" height="24" transform="translate(-13505 -11740)" fill="#fff" opacity="0"/></g></svg>