<svg xmlns="http://www.w3.org/2000/svg" xmlns:xlink="http://www.w3.org/1999/xlink" width="12" height="17.704" viewBox="0 0 12 17.704"><defs><clipPath id="a"><rect width="12" height="17.704" fill="#fff"/></clipPath></defs><g transform="translate(-37.719 -77.866)"><g transform="translate(38 77.866)" stroke="#707070" stroke-width="1"><ellipse cx="5.444" cy="6.5" rx="5.444" ry="6.5" stroke="none"/><ellipse cx="5.444" cy="6.5" rx="4.944" ry="6" fill="none"/></g><g transform="translate(37.719 77.866)"><g clip-path="url(#a)"><path d="M6,0A6.007,6.007,0,0,0,0,6c0,1.451,1.026,3.9,3.133,7.475.262.444.515.863.755,1.252.838,1.357,1.5,2.331,1.5,2.34l.333.491a.331.331,0,0,0,.548,0l.345-.509c.211-.313.962-1.442,1.822-2.865.5-.831.942-1.589,1.339-2.316l.061-.114C11.274,9.122,12,7.185,12,6A6.007,6.007,0,0,0,6,0M6,9.428a3.25,3.25,0,1,1,3.251-3.25A3.254,3.254,0,0,1,6,9.428" fill="#fff"/></g></g></g></svg>