<svg xmlns="http://www.w3.org/2000/svg" width="24" height="24" viewBox="0 0 24 24"><g transform="translate(13505 11714)"><g transform="translate(0 26)"><rect width="24" height="24" transform="translate(-13505 -11740)" fill="#fff" opacity="0"/></g><g transform="translate(-13656 -12497.529)"><path d="M13662.506,12514.988a1.775,1.775,0,0,1-1.55-.889l-4.028-6.951-.065-.113a6.222,6.222,0,0,1-.861-3.105v-.119a6.448,6.448,0,0,1,1.8-4.373,6.251,6.251,0,0,1,4.537-1.909h.322a6.332,6.332,0,0,1,5.476,9.51l-.059.1-4.027,6.961A1.764,1.764,0,0,1,13662.506,12514.988Zm0-14a3,3,0,1,0,3,3A3,3,0,0,0,13662.5,12500.99Z" transform="translate(-13500 -11711)" stroke="rgba(0,0,0,0)" stroke-miterlimit="10" stroke-width="1"/></g></g></svg>