<svg xmlns="http://www.w3.org/2000/svg" xmlns:xlink="http://www.w3.org/1999/xlink" width="300" height="300" viewBox="0 0 300 300"><defs><clipPath id="a"><rect width="300" height="300" fill="none"/></clipPath></defs><rect width="300" height="300" fill="#fff" opacity="0"/><g clip-path="url(#a)"><path d="M652.106,626.129c4.246-1.44,7.4-4.323,7.654-9.045a21.9,21.9,0,0,1,.162-3.13c.247-1.229,1.862-3.387,3.367-2.489.919.549.745,2.31.7,3.182-.121,2.405-.6,5.889-1.954,7.961a9.985,9.985,0,0,1-11.228,3.94c.43-.135.864-.273,1.3-.42" transform="translate(-553.188 -519.564)" fill="#1a1e22"/><path d="M649.514,623.505a10.24,10.24,0,0,1-3.188-.5.75.75,0,0,1,.009-1.428c.409-.129.847-.268,1.281-.415,3.108-1.054,6.872-3.363,7.146-8.376.018-.336.02-.673.021-1.031a11.229,11.229,0,0,1,.155-2.206,4.79,4.79,0,0,1,2.388-3.09,2.2,2.2,0,0,1,2.1.105c1.244.742,1.139,2.574,1.077,3.669l-.011.2c-.105,2.087-.515,5.944-2.075,8.334a10.691,10.691,0,0,1-8.9,4.747m8.781-15.764a.887.887,0,0,0-.361.086,3.31,3.31,0,0,0-1.525,2.014,9.922,9.922,0,0,0-.126,1.915c0,.36,0,.733-.023,1.108-.224,4.089-2.575,7.284-6.667,9.128a9.3,9.3,0,0,0,7.567-4.054c1.418-2.172,1.754-6.031,1.833-7.589l.011-.205c.031-.552.115-2.019-.348-2.295a.683.683,0,0,0-.36-.107" transform="translate(-548.938 -515.304)" fill="#1a1e22"/><path d="M647.713,622.707c3.733.222,7.072-1.016,8.756-4.583a18.258,18.258,0,0,1,1.109-2.367c.577-.872,2.5-2.032,3.383-.865.538.713-.15,2.02-.458,2.679-.85,1.82-2.315,4.362-4.011,5.537a8.328,8.328,0,0,1-9.913-.485c.375.031.753.06,1.134.083" transform="translate(-549.592 -522.239)" fill="#1a1e22"/><path d="M647.621,621.026a8.943,8.943,0,0,1-5.777-2.08.75.75,0,0,1,.546-1.32c.337.028.729.059,1.117.082,2.693.161,6.276-.43,8.033-4.154.118-.251.225-.51.337-.784a9.467,9.467,0,0,1,.824-1.677,4.07,4.07,0,0,1,2.916-1.693,1.987,1.987,0,0,1,1.691.79c.773,1.025.1,2.45-.308,3.3l-.069.147c-.742,1.591-2.284,4.464-4.263,5.836a8.859,8.859,0,0,1-5.048,1.551m-2.223-1.842a7.592,7.592,0,0,0,6.417-.942c1.753-1.215,3.213-4.068,3.759-5.238l.073-.156c.458-.966.615-1.556.465-1.755a.478.478,0,0,0-.448-.194,2.656,2.656,0,0,0-1.711,1.021,8.224,8.224,0,0,0-.688,1.419c-.115.28-.233.569-.368.855a8.665,8.665,0,0,1-7.5,4.99" transform="translate(-545.342 -517.99)" fill="#1a1e22"/><path d="M698.958,428.025a78.266,78.266,0,0,1,.884,9.234c.485,6.213-.577,12.672-1.113,18.9-.448,5.2-2,15.291,2.095,19.932,3.889,4.408,12.207,5.414,12.207,5.414,1.435,1.77-5.609,2.349-7.388,4.037-3.291,3.123-9.14,5.76-13.371,8.064l-.006,0a42.4,42.4,0,0,1-17,4.5c-13.743,1.015-30.546-4.607-34.693-15.885,7.416-2.505,9.909-3,10.13-9.371.083-4.032-1.618-24.747-1.44-31.268.34-12.411,1.885-26.51,20.191-29.921,12.01-2.238,22.3,2.964,27.367,10.74a15.851,15.851,0,0,1,2.134,5.617" transform="translate(-544.489 -349.474)" fill="#fff"/><path d="M667.805,494.746a47.858,47.858,0,0,1-18.022-3.507c-9.167-3.829-12.762-9.175-14.163-12.985a.75.75,0,0,1,.464-.969l1.118-.376c6.551-2.2,8.311-2.786,8.5-8.311.035-1.694-.255-6.442-.591-11.94-.446-7.3-.951-15.574-.849-19.323.164-5.988.578-12.861,3.435-18.647,3.2-6.488,8.885-10.41,17.368-11.991a29.081,29.081,0,0,1,16.717,1.661,25.239,25.239,0,0,1,11.415,9.406,16.49,16.49,0,0,1,2.242,5.88,51.988,51.988,0,0,1,.746,7.033c.048.8.093,1.551.151,2.289a79.3,79.3,0,0,1-.651,14.368c-.163,1.534-.331,3.119-.463,4.658-.049.569-.111,1.2-.177,1.86-.537,5.423-1.348,13.619,2.087,17.512,3.658,4.146,11.654,5.156,11.734,5.165a.749.749,0,0,1,.493.272,1.376,1.376,0,0,1,.3,1.3c-.326,1.072-1.977,1.58-4.066,2.223a11.791,11.791,0,0,0-3.692,1.531c-2.65,2.515-6.866,4.7-10.586,6.629-1.042.54-2.026,1.05-2.942,1.549l0,0,0,0a42.722,42.722,0,0,1-17.3,4.59c-1.076.079-2.168.119-3.267.119m-30.492-16.293c1.481,3.463,4.953,8.021,13.048,11.4a46.372,46.372,0,0,0,20.6,3.277,41.255,41.255,0,0,0,16.693-4.411h0l0,0c.93-.506,1.921-1.02,2.97-1.564,3.631-1.883,7.747-4.016,10.244-6.385.872-.827,2.606-1.361,4.284-1.877a18.957,18.957,0,0,0,2.742-.991,31.313,31.313,0,0,1-3.99-.963,17.168,17.168,0,0,1-7.9-4.58c-3.866-4.383-3.017-12.97-2.454-18.652.065-.659.127-1.282.175-1.841.134-1.553.3-3.146.466-4.687a78.223,78.223,0,0,0,.647-14.093c-.059-.751-.1-1.512-.153-2.316a50.845,50.845,0,0,0-.72-6.83,15.032,15.032,0,0,0-2.027-5.354,24.074,24.074,0,0,0-10.743-8.844,27.585,27.585,0,0,0-15.858-1.568c-17.418,3.246-19.223,16.207-19.579,29.2-.1,3.682.4,11.921.846,19.19.338,5.53.63,10.307.593,12.072-.228,6.575-2.95,7.488-9.526,9.692l-.365.122" transform="translate(-540.238 -345.239)" fill="#1a1e22"/><path d="M821.03,560.268a1.016,1.016,0,0,0-.892-1.744c-1.427.218-1.025,2.754.606,1.938a1.249,1.249,0,0,0,.286-.194" transform="translate(-696.374 -474.733)" fill="#1a1e22"/><path d="M815.881,557.126a1.535,1.535,0,0,1-.991-.351,1.9,1.9,0,0,1-.562-1.952,1.732,1.732,0,0,1,1.44-1.288,1.765,1.765,0,0,1,1.512,3.038,2,2,0,0,1-.457.312,2.117,2.117,0,0,1-.943.24m.893-1.105h0Zm-.7-1.009a.564.564,0,0,0-.082.007.241.241,0,0,0-.22.2.441.441,0,0,0,.067.4c.026.022.14.013.31-.072a.5.5,0,0,0,.115-.077.258.258,0,0,0,.061-.312.254.254,0,0,0-.251-.144" transform="translate(-692.118 -470.485)" fill="#1a1e22"/><path d="M943.738,553.774a1.015,1.015,0,0,0-.892-1.744c-1.427.218-1.025,2.754.606,1.938a1.247,1.247,0,0,0,.286-.194" transform="translate(-800.676 -469.213)" fill="#1a1e22"/><path d="M938.589,550.632a1.535,1.535,0,0,1-.991-.351,1.9,1.9,0,0,1-.562-1.952,1.732,1.732,0,0,1,1.44-1.288,1.765,1.765,0,0,1,1.512,3.038h0a2.008,2.008,0,0,1-.457.312,2.116,2.116,0,0,1-.943.24m.893-1.105h0Zm-.7-1.009a.556.556,0,0,0-.083.007.242.242,0,0,0-.221.2.443.443,0,0,0,.068.4c.026.021.14.013.31-.072a.5.5,0,0,0,.115-.077.258.258,0,0,0,.061-.312.254.254,0,0,0-.25-.144" transform="translate(-796.42 -464.965)" fill="#1a1e22"/><path d="M1013.449,556.11a4.678,4.678,0,0,1,.093-.64,2.581,2.581,0,0,1,3.426-1.914c1.521.683,2.528,2.611,3.037,4.527a11.589,11.589,0,0,1,.05,6.287c-.608,1.939-2,3.482-3.678,3.72-2.253.318-4.863-2.083-5.313-4.183-.286-1.338-.565-5.189,0-6.438.4-.893,2.351-.9,2.39-1.359" transform="translate(-859.125 -470.357)" fill="#fff"/><path d="M1025.243,564.674a4.668,4.668,0,0,1-3.384-1.6.75.75,0,0,1,1.106-1.014,3.083,3.083,0,0,0,2.595,1.089,4.273,4.273,0,0,0,3.067-3.2,10.8,10.8,0,0,0-.059-5.87c-.54-2.033-1.519-3.541-2.62-4.035a1.676,1.676,0,0,0-1.617.215,1.789,1.789,0,0,0-.79,1.612.75.75,0,1,1-1.5.094,3.3,3.3,0,0,1,1.433-2.939,3.179,3.179,0,0,1,3.085-.351c2.175.976,3.141,3.835,3.455,5.019a12.3,12.3,0,0,1,.04,6.7,5.745,5.745,0,0,1-4.289,4.238,3.764,3.764,0,0,1-.526.037" transform="translate(-868.413 -466.161)" fill="#1a1e22"/><path d="M740,316.4a16.853,16.853,0,0,0,5.063-13.321,22.807,22.807,0,0,0-7.4-15.512c-3.473-3.018-10.109-6.614-14.289-3.192a4.815,4.815,0,0,1,3.727,4.316,4.876,4.876,0,0,1-3.13,4.8c-2.733.945-5.556-.83-8.108-2.2-10.649-5.72-22.974-.61-28.543,10.007-4.591,8.753-2.518,16.563.9,25.17.052-10.149,9.13-24.155,20.191-20.628,5.157,1.644,8.577,6.483,12.652,10.113,6.429,5.727,14.034,5,18.938.449" transform="translate(-581.972 -240.536)" fill="#1a1e22"/><path d="M684.045,322.983a.75.75,0,0,1-.7-.473c-3.137-7.9-5.787-16.408-.864-25.795a23.94,23.94,0,0,1,13.923-11.875,20.268,20.268,0,0,1,15.639,1.556c.225.121.452.245.681.37,2.284,1.247,4.647,2.537,6.827,1.783a4.144,4.144,0,0,0,2.627-4.041,4.084,4.084,0,0,0-3.122-3.629.75.75,0,0,1-.331-1.316c2.051-1.68,4.858-2.009,8.116-.952a21.914,21.914,0,0,1,7.14,4.158,23.622,23.622,0,0,1,7.656,16.044,17.7,17.7,0,0,1-5.3,13.9l-.51-.55.51.55a14.06,14.06,0,0,1-9.4,3.829,15.6,15.6,0,0,1-10.548-4.268c-1.136-1.012-2.23-2.125-3.289-3.2-2.842-2.89-5.526-5.62-9.092-6.757a11.106,11.106,0,0,0-10.192,1.913c-5.11,3.714-8.988,11.455-9.021,18.005a.75.75,0,0,1-.75.746m18.381-37.561a19,19,0,0,0-5.579.852,22.432,22.432,0,0,0-13.034,11.137,21.443,21.443,0,0,0-2.471,12.224,37.893,37.893,0,0,0,2.25,9.292,26.829,26.829,0,0,1,2.367-7.243,23.607,23.607,0,0,1,6.975-8.667,12.549,12.549,0,0,1,11.53-2.128c3.92,1.25,6.861,4.241,9.706,7.134,1.042,1.059,2.119,2.155,3.218,3.134a14.7,14.7,0,0,0,9.575,3.889,12.079,12.079,0,0,0,8.354-3.43,16.2,16.2,0,0,0,4.823-12.737A22.051,22.051,0,0,0,733,283.9c-2.609-2.267-8.17-5.664-12.122-3.917a5.5,5.5,0,0,1-.834,9.983c-2.807.971-5.585-.545-8.036-1.884-.226-.123-.45-.246-.672-.365a18.711,18.711,0,0,0-8.91-2.295" transform="translate(-577.795 -236.303)" fill="#1a1e22"/><path d="M855.35,644.856a.749.749,0,0,1-.575-.267,8.124,8.124,0,0,0-5.523-3.166h0a.75.75,0,0,1,.2-1.487l.015,0,.048.006a9.625,9.625,0,0,1,6.414,3.68.75.75,0,0,1-.573,1.233" transform="translate(-721.309 -543.939)" fill="#1a1e22"/><path d="M667.179,565.159c-.575-1.767-.859-3.694-3.375-3.819-1.9-.094-3.613,1.189-4.77,2.7a9.022,9.022,0,0,0-2,5.714,6.168,6.168,0,0,0,2.933,5.13c3.148,1.774,6.363-.66,7.8-3.481a5.03,5.03,0,0,0,.023-4.83,6.505,6.505,0,0,1-.612-1.412" transform="translate(-558.477 -477.135)" fill="#fff"/><path d="M659.58,571.739a5.478,5.478,0,0,1-1.59-.233,6.944,6.944,0,0,1-4.482-4.9,9.743,9.743,0,0,1,.758-6.517,6.664,6.664,0,0,1,4.626-4.09,4.435,4.435,0,0,1,3.78,1.292,3.059,3.059,0,0,1,.93,2.745.75.75,0,0,1-1.474-.279,1.648,1.648,0,0,0-.527-1.415,2.978,2.978,0,0,0-2.458-.864c-1.967.335-3.116,2.38-3.518,3.244a8.25,8.25,0,0,0-.666,5.5,5.42,5.42,0,0,0,3.467,3.845,4.2,4.2,0,0,0,3.366-.462.75.75,0,1,1,.8,1.269,5.677,5.677,0,0,1-3.012.861" transform="translate(-555.258 -472.555)" fill="#1a1e22"/><path d="M354.1,867.275c5.027,2.531,8.019,4.477,11,9.325a54.543,54.543,0,0,1,5.8,13.183,62.2,62.2,0,0,1,1.511,28.6c-3.1,16.884-13.372,28.245-29.918,32.926a96.128,96.128,0,0,1-31.739,3.457c-5.841-.344-5.891,1.53-9.264,6.137a66.078,66.078,0,0,1-9.54,10.543c-19.11,16.868-50.936,20.453-72.535,6.45-15.913-10.317-20.354-26.271-19.266-44.263,1.014-16.768,9.714-32.325,21.171-44.256a106.12,106.12,0,0,1,23.31-18.417,124.739,124.739,0,0,1,14.158-6.974c1.631-.685,14.019-4.789,14.019-4.789,7.394,6.759,17.2,8.536,25,8.595,17.158.13,30.923-10.146,30.923-10.146,8.634,2.726,17.277,5.559,25.369,9.634" transform="translate(-170 -728.995)" fill="#fff"/><path d="M665.959,1018.964c7.364,4.56,15.384,10.03,24.229,16.33,12.464,8.878,28.322,14.778,44.276,14.886,14.177.1,28.184-4.015,39.055-13.323a43.4,43.4,0,0,0,10.837-14.415c4.635-9.747,4.274-22.79,4.3-33.41.029-11.486-4.259-22.728-10.625-32.164a64.517,64.517,0,0,0-10.879-12.557,124.541,124.541,0,0,0-13.132-8.792l-3.376,62.463c-9.375,14.269-31.366,12.092-43.51,9.746-8.71-1.682-17.789-6.746-24.36-10.936Z" transform="translate(-566.065 -795.19)" fill="#fff"/><path d="M438.61,1286.092c-2.734-1.574-5.449-3.143-8.17-4.572-15.911-8.356-38.274-10.351-51.639,5.363-.964,1.133-1.843,2.784-1.115,4.1a2.5,2.5,0,0,0,2.582,1.095,8.037,8.037,0,0,0,2.721-1.172,56.493,56.493,0,0,1,13.869-5.68,39.18,39.18,0,0,0-14.7,8.091c-1.106.961-2.263,2.422-1.713,3.819a2.366,2.366,0,0,0,2.367,1.344,6.786,6.786,0,0,0,2.7-.963l11.606-6.11a29.893,29.893,0,0,0-10.383,6.946c-2.106,2.162-1.991,4.206,1.072,4.3,3.108.1,5.117-.948,7.837-2.153a14.484,14.484,0,0,1,11.931-.468c4.986,2.565,10.284,5.676,15.968,9.3a83.538,83.538,0,0,0,8.828-10.106c5.141-7.593,6.237-13.137,6.237-13.137" transform="translate(-320.805 -1083.86)" fill="#fff"/><path d="M485.44,1335.408l-.486,0a73.8,73.8,0,0,1-23.687-4.206,82.788,82.788,0,0,1-21.019-10.862c-16.111-11.51-27.593-18.856-37.224-23.814a13.676,13.676,0,0,0-11.319.47l-.714.319c-2.388,1.07-4.446,1.994-7.451,1.9-2.035-.065-2.793-.9-3.071-1.59-.417-1.036,0-2.319,1.171-3.648l-.022.011a7.407,7.407,0,0,1-3,1.049,3.112,3.112,0,0,1-3.107-1.818c-.565-1.438.117-3.093,1.919-4.66q.42-.365.853-.72a6.518,6.518,0,0,1-2.147.789,3.259,3.259,0,0,1-3.347-1.473c-.754-1.36-.317-3.163,1.2-4.946,13.46-15.827,36.1-14.187,52.559-5.542,2.6,1.368,5.249,2.891,7.806,4.363,7.45,4.289,15.153,8.723,23.424,10.326a74.939,74.939,0,0,0,22.564,1.347c9.406-1.094,16.194-4.731,20.177-10.81a.75.75,0,1,1,1.255.822c-4.237,6.468-11.39,10.33-21.258,11.477a76.419,76.419,0,0,1-23.023-1.364c-8.517-1.65-16.331-6.148-23.887-10.5-2.545-1.465-5.177-2.98-7.755-4.334a52.749,52.749,0,0,0-26.391-6.26c-9.932.452-18.344,4.41-24.327,11.445-.4.473-1.665,2.1-1.031,3.248a1.788,1.788,0,0,0,1.816.716,6.93,6.93,0,0,0,2.319-1l.138-.079a57.2,57.2,0,0,1,14.054-5.755.75.75,0,0,1,.382,1.45,38.389,38.389,0,0,0-14.4,7.932c-.6.522-1.949,1.857-1.507,2.979a1.643,1.643,0,0,0,1.627.87,6.2,6.2,0,0,0,2.389-.878l6.029-3.173a30.076,30.076,0,0,1,5.652-2.97.75.75,0,0,1,.625,1.361l-5.51,2.9a29.633,29.633,0,0,0-4.686,3.905c-1.111,1.141-1.324,2-1.169,2.38s.784.621,1.728.651c2.656.085,4.48-.732,6.789-1.767l.72-.322a15.246,15.246,0,0,1,12.508-.481c.024.009.047.02.07.031,9.7,4.992,21.253,12.377,37.444,23.944a81.287,81.287,0,0,0,20.638,10.665,72.311,72.311,0,0,0,23.206,4.123,64.127,64.127,0,0,0,20.528-3.108,52.909,52.909,0,0,0,18.035-10.077c.69-.592,1.37-1.22,2.022-1.866a.75.75,0,1,1,1.056,1.065c-.677.671-1.384,1.324-2.1,1.939a54.4,54.4,0,0,1-18.543,10.363,65.435,65.435,0,0,1-20.521,3.186" transform="translate(-316.561 -1079.667)" fill="#1a1e22"/><path d="M564.463,1223.372c16.8-7.555,28.493-23.17,34.809-42.245l31.462,5.459c-7.3,39.542-24.264,56.712-33.044,63.376Z" transform="translate(-479.794 -1003.958)" fill="#fff"/><path d="M246.074,983.048a57.534,57.534,0,0,1-31.3-8.777C200.316,964.9,193.9,950.2,195.165,929.334c.935-15.462,8.527-31.347,21.379-44.73a106.775,106.775,0,0,1,23.476-18.547,124.464,124.464,0,0,1,14.243-7.016c1.639-.689,13.567-4.641,14.074-4.809a.749.749,0,0,1,.742.158c7.488,6.845,17.454,8.345,24.495,8.4h.311a52.36,52.36,0,0,0,21.231-4.941,53.959,53.959,0,0,0,8.927-5.057.75.75,0,0,1,.674-.114c8.247,2.6,16.775,5.3,25.013,9.445a.75.75,0,1,1-.675,1.34c-8.011-4.035-16.352-6.69-24.431-9.241a56.8,56.8,0,0,1-8.849,4.975,53.89,53.89,0,0,1-21.891,5.094h-.322c-7.2-.055-17.369-1.582-25.167-8.5-2.166.719-12.131,4.035-13.551,4.631a122.982,122.982,0,0,0-14.073,6.932,105.274,105.274,0,0,0-23.145,18.288c-12.6,13.127-20.05,28.675-20.963,43.782-1.226,20.279,4.964,34.537,18.925,43.588,10.191,6.607,23.232,9.531,36.721,8.235,13.28-1.277,25.677-6.468,34.91-14.617,7.695-6.792,14.178-15.919,19.272-27.128a126.579,126.579,0,0,0,9.35-31.512c-3.666-.61-20.439-3.371-30.18-4.974a83.356,83.356,0,0,1-13.5,25.261c-6.2,7.72-13.414,13.3-21.447,16.577a.75.75,0,1,1-.567-1.389c7.794-3.182,14.807-8.608,20.844-16.128a82.118,82.118,0,0,0,13.451-25.4.75.75,0,0,1,.834-.5l15.774,2.6,10.845,1.788,3.574.591,1.268.211a.761.761,0,0,1,.7.877,128.382,128.382,0,0,1-9.583,32.627c-5.181,11.4-11.791,20.7-19.645,27.633-9.468,8.357-22.167,13.679-35.759,14.985-2.139.206-4.27.308-6.378.308" transform="translate(-165.758 -724.745)" fill="#1a1e22"/><path d="M1416.907,1318.946c-.072-20.15-.144-25.517-.216-45.668l11.961.247s.163,10.3.163,28.566a34.446,34.446,0,0,1-3.377,6.4,124.218,124.218,0,0,1-8.531,10.459" transform="translate(-1204.187 -1082.286)" fill="#fff"/><path d="M1492.342,1319.854a.75.75,0,0,1-.75-.75c0-16.938-.161-25.091-.163-25.172a.75.75,0,0,1,1.5-.03c0,.081.163,8.249.163,25.2a.75.75,0,0,1-.75.75" transform="translate(-1267.715 -1099.191)" fill="#1a1e22"/><path d="M1412.658,1337.91a.75.75,0,0,1-.75-.747c-.036-9.453-.072-15.246-.108-20.85s-.072-11.4-.108-20.854a.75.75,0,0,1,.747-.753h0a.75.75,0,0,1,.75.747c.036,9.453.072,15.246.108,20.85s.072,11.4.108,20.853a.75.75,0,0,1-.747.753Z" transform="translate(-1199.938 -1100.501)" fill="#1a1e22"/><path d="M1069.626,691.44c-3.211,0-6.277-.185-8.613-2.08-2.665-2.161-2.023-7.462-.289-10.011l46.579-83.268c2.565-4.584,6.656-10.617,12.6-10.089,4.6.409,7.643,4.542,10.242,8.948,4.178,7.08,8.339,14.328,12.364,21.337,4.685,8.161,9.53,16.6,14.427,24.817,1.968,3.3,3.945,6.693,5.857,9.972,1.989,3.412,4.046,6.939,6.084,10.352.65,1.089,1.416,2.285,2.225,3.552,3.552,5.552,7.971,12.461,7.437,17.829-.024.237-.037.475-.051.728-.019.355-.039.723-.091,1.1-.989,7.147-13.564,6.875-21.079,6.714-.976-.021-1.819-.039-2.545-.039h-4.643c-6.832,0-13.9,0-20.684.013l-59.627.129h-.193m49.564-103.98c-4.777,0-8.308,5.3-10.578,9.354l-46.6,83.3c-.011.02-.024.04-.037.06-1.372,1.99-1.938,6.47-.021,8.025,2,1.623,4.859,1.752,7.859,1.745l59.627-.129c6.79-.015,13.856-.014,20.688-.013h4.643c.742,0,1.633.019,2.577.04,6.555.142,18.755.4,19.561-5.419.043-.314.061-.635.079-.974.014-.258.029-.525.056-.795.483-4.85-3.781-11.516-7.207-16.873-.817-1.276-1.588-2.482-2.25-3.591-2.042-3.42-4.1-6.951-6.093-10.366-1.91-3.276-3.885-6.663-5.85-9.96-4.9-8.228-9.751-16.672-14.44-24.838-4.022-7.005-8.181-14.249-12.355-21.321-2.4-4.061-5.156-7.867-9.084-8.216-.194-.017-.388-.026-.579-.026m58.6,95.264h0Z" transform="translate(-900.334 -498.065)" fill="#1a1e22"/><path d="M1245.909,759.244c.034-5.6-4.6-11.431-7.251-15.869-3.031-5.076-6.01-10.3-9.058-15.416-6.907-11.59-13.464-23.39-20.322-35.009-1.735-2.941-3.963-6.21-7.329-6.509-4.074-.362-6.992,3.757-9.01,7.364L1157.6,756.984c-2.238,3.8-1.628,5.455.094,6.851s4.115,1.455,6.32,1.451l45.226-.1c6.316-.014,12.9-.01,19.212-.01,4.694,0,16.172.274,17.355-4.572a5.9,5.9,0,0,0,.1-1.364" transform="translate(-982.725 -583.455)" fill="#ff8571"/><path d="M1416.894,808.786a14.6,14.6,0,0,1,1.114-5.758,5.332,5.332,0,0,1,4.29-3.271c1.937-.069,3.707,1.405,4.64,3.232a15.479,15.479,0,0,1,1.318,6.031,72.129,72.129,0,0,1-.659,15.639c-.458,3.013-.925,6.025-1.492,9.019-.443,2.339-.544,6.043-3.618,6.372a2.5,2.5,0,0,1-2.017-.941c-1.825-2.019-1.559-5.779-1.828-8.349-.354-3.388-.586-6.786-.917-10.176a88.872,88.872,0,0,1-.83-11.8" transform="translate(-1204.341 -679.791)" fill="#fff"/><path d="M1425.16,1090.917a3.835,3.835,0,0,0,1.768,3.352,5.935,5.935,0,0,0,3.667.83c3.748-.251,4.742-4.39,2.253-6.909-2.625-2.655-7.613-1.315-7.688,2.727" transform="translate(-1211.385 -923.793)" fill="#fff"/><path d="M1508.75,391.507a.751.751,0,0,1-.705-1.006c2.443-6.739,4.615-13.668,6.458-20.6a.75.75,0,0,1,1.45.385c-1.854,6.969-4.04,13.941-6.5,20.721a.75.75,0,0,1-.705.495" transform="translate(-1281.799 -313.946)" fill="#1a1e22"/><path d="M1444.1,424.113a.75.75,0,0,1-.745-.668l-1.465-13.257a.75.75,0,0,1,1.491-.165l1.465,13.257a.751.751,0,0,1-.746.832" transform="translate(-1225.605 -347.952)" fill="#1a1e22"/><path d="M1360.974,448a.75.75,0,0,1-.649-.373l-7.133-12.249a.75.75,0,0,1,1.3-.755l7.132,12.249a.75.75,0,0,1-.647,1.128" transform="translate(-1150.127 -369.115)" fill="#1a1e22"/><path d="M833.244,732.167c-3.335-1.214-5.318,5.066-6.421,8.766.726-3.736,5.342-13.509-.979-13.122-1.681.1-3.573,2.735-4.94,5.388,2.061-5.3,3.954-12,5.477-17.56.344-1.257.423-2.888-.691-3.565a2.24,2.24,0,0,0-2.42.274,6.5,6.5,0,0,0-1.589,2.016c-4.665,7.9-6.575,12.111-11.036,19.9l-.139-1.318c-.831-4.6-6.772-10.269-10.508-10.662a3.475,3.475,0,0,0-2.78,1.114c-.424.733.024,1.649.5,2.351,3.352,4.975,4.87,8.381,5.128,14.616a71.3,71.3,0,0,1-.134,9.164,148.193,148.193,0,0,1-6.467,32.083l-.286.874c8.917,5.685,21.195,7.36,31.547,5.2,1.527-11.226,11.14-53.55,5.742-55.516" transform="translate(-676.562 -605.055)" fill="#fff"/><path d="M815.1,785.057a43.951,43.951,0,0,1-23.235-6.447.75.75,0,0,1-.309-.868,145.085,145.085,0,0,0,6.633-32.529,70.052,70.052,0,0,0,.132-9.068c-.254-6.165-1.815-9.5-5-14.227-.836-1.242-1.013-2.3-.524-3.145a4.143,4.143,0,0,1,3.508-1.484c4.029.424,9.657,5.906,10.981,10.487,1.575-2.79,2.8-5.086,4-7.327,1.75-3.27,3.4-6.359,5.975-10.711a7.206,7.206,0,0,1,1.788-2.237,2.994,2.994,0,0,1,3.256-.313c1.216.739,1.589,2.344,1.024,4.4-1.164,4.246-2.381,8.531-3.649,12.409a3.953,3.953,0,0,1,2.343-1.183,3.627,3.627,0,0,1,3.277,1.2c.82,1.041.924,2.6.691,4.338a4.5,4.5,0,0,1,1.274-1,3,3,0,0,1,2.46-.137c2.289.834,2.705,5.837,1.391,16.73-1.034,8.569-2.968,19.02-4.522,27.418-.947,5.12-1.766,9.541-2.124,12.173a.75.75,0,0,1-.59.633,43.146,43.146,0,0,1-8.784.886m-21.936-7.4a40.778,40.778,0,0,0,14.422,5.255,43.727,43.727,0,0,0,15.476-.1c.393-2.705,1.17-6.9,2.061-11.715,1.55-8.377,3.48-18.8,4.508-27.325a75,75,0,0,0,.7-10.775c-.131-3.815-.955-4.306-1.119-4.366a1.513,1.513,0,0,0-1.273.067c-2.031,1.022-3.477,5.876-4.172,8.209a.75.75,0,0,1-1.455-.357c.158-.812.472-1.837.837-3.025.863-2.812,2.168-7.062.973-8.58a2.22,2.22,0,0,0-2.007-.626c-1.263.077-2.993,2.439-4.312,4.979-.5,1.292-1.016,2.493-1.534,3.577a.75.75,0,0,1-1.389-.558,28.758,28.758,0,0,1,1.549-3.621c1.921-4.935,3.745-11.255,5.456-17.5.285-1.04.341-2.3-.357-2.726a1.535,1.535,0,0,0-1.584.236,5.972,5.972,0,0,0-1.39,1.794c-2.555,4.325-4.2,7.4-5.944,10.656-1.691,3.158-3.439,6.424-6.13,11.028a.75.75,0,1,1-1.295-.757q.632-1.081,1.2-2.068a.748.748,0,0,1-.388-.53c-.67-3.711-5.973-9.642-9.848-10.05a2.9,2.9,0,0,0-2.053.743c-.221.382.133,1.057.47,1.557,3.346,4.966,4.986,8.478,5.255,15a71.494,71.494,0,0,1-.136,9.26,146.837,146.837,0,0,1-6.519,32.31" transform="translate(-672.793 -600.809)" fill="#1a1e22"/></g></svg>