<svg xmlns="http://www.w3.org/2000/svg" width="100" height="20" viewBox="0 0 100 20"><g transform="translate(-24 -94)"><g transform="translate(-17)"><g transform="translate(-86.997 -266)"><path d="M123.812,17.017a7.891,7.891,0,0,1-.17,1.79,2.489,2.489,0,0,1-.525,1.012,2.083,2.083,0,0,1-.921.5,7.671,7.671,0,0,1-1.457.151,7.315,7.315,0,0,1-1.466-.15,1.932,1.932,0,0,1-.932-.489,2.254,2.254,0,0,1-.516-1.025,6.725,6.725,0,0,1-.19-1.79V6.142h-3.883V18.91a5.656,5.656,0,0,0,1.609,3.982,5.294,5.294,0,0,0,1.795,1.176,5.757,5.757,0,0,0,2.226.422h2.684a5.975,5.975,0,0,0,2.247-.422,5.793,5.793,0,0,0,1.8-1.184A5.528,5.528,0,0,0,127.7,18.91V6.142h-3.883Z" transform="translate(43.529 355.443)"/><path d="M186.424,7.739a5.307,5.307,0,0,0-1.795-1.176,5.757,5.757,0,0,0-2.226-.422h-2.684a5.975,5.975,0,0,0-2.247.422,5.789,5.789,0,0,0-1.8,1.184,5.915,5.915,0,0,0-1.162,1.76,5.873,5.873,0,0,0-.417,2.213V24.489h3.883v-6.38h6.177v6.38h3.883V11.721a5.661,5.661,0,0,0-1.609-3.982m-2.274,5.875V14.1h-6.177v-.482a7.9,7.9,0,0,1,.17-1.79,2.488,2.488,0,0,1,.525-1.012,2.084,2.084,0,0,1,.921-.5,7.666,7.666,0,0,1,1.456-.151,7.318,7.318,0,0,1,1.466.15,1.932,1.932,0,0,1,.932.489,2.259,2.259,0,0,1,.516,1.025,6.728,6.728,0,0,1,.19,1.79" transform="translate(-1.277 355.451)"/><path d="M63.439,18.109h3.213v2.452H64.165a6.525,6.525,0,0,1-1.825-.2,1.874,1.874,0,0,1-.97-.509l-.025-.025a1.655,1.655,0,0,1-.481-.918l-.006-.026a6.734,6.734,0,0,1-.174-1.677V13.423a7,7,0,0,1,.179-1.7,1.87,1.87,0,0,1,.494-.956,2.208,2.208,0,0,1,.987-.523,7.624,7.624,0,0,1,1.82-.176h5.482V6.142h-7.4a5.71,5.71,0,0,0-2.213.426,5.577,5.577,0,0,0-1.766,1.194,5.023,5.023,0,0,0-1.149,1.832,6.136,6.136,0,0,0-.417,2.277v6.89a6.034,6.034,0,0,0,.412,2.263,4.754,4.754,0,0,0,1.147,1.817,4.935,4.935,0,0,0,1.768,1.2,5.357,5.357,0,0,0,2.214.449l8.4.068V14.1h-7.2Z" transform="translate(85.896 355.443)"/><path d="M247.555,23.227l-.016-.008a.7.7,0,0,1-.027-.077l-.136-.41c-.083-.231-.188-.525-.319-.92-.132-.354-.273-.741-.416-1.174l-.01-.028c-.122-.307-.222-.617-.319-.917l-.1-.312-.041-.106c-.125-.323-.233-.6-.3-.848l-.027-.074c-.142-.309-.188-.449-.19-.455l-.035-.084c-.08-.161-.155-.313-.229-.5l-.028-.06c-.073-.133-.151-.265-.235-.4l.1-.067.17-.117a3.785,3.785,0,0,0,.653-.532,5.252,5.252,0,0,0,.69-.84,3.8,3.8,0,0,0,.477-1.428l0-.041c.042-.481.087-1.448.087-2.172v-.532a5.452,5.452,0,0,0-.378-2.092l-.011-.024a6,6,0,0,0-.924-1.418l-.063-.06c-.087-.071-.22-.2-.36-.345l-.078-.065c-.167-.112-.426-.281-.739-.451l-.041-.02a7.581,7.581,0,0,0-1.156-.367l-.028-.006a8.732,8.732,0,0,0-1.64-.137h-8.441V24.49h3.989v-6.38h2.761c.264,0,.514.019.726.038a1.54,1.54,0,0,1,.336.132,2.293,2.293,0,0,1,.246.28l.021.047c.074.166.161.362.263.6l1.534,4.356a1.192,1.192,0,0,0,.546.765,1.5,1.5,0,0,0,.767.142h2.578a.623.623,0,0,0,.663-.625.785.785,0,0,0-.257-.558Zm-4.306-11.356a4.123,4.123,0,0,1-.326,1.823l0,.007c-.182.263-.588.4-1.205.4h-4.283V10.134h4.389a1.528,1.528,0,0,1,1.073.359,2.072,2.072,0,0,1,.357,1.378" transform="translate(-45.349 355.443)"/><path d="M304.7,9.551l0-.006a5.845,5.845,0,0,0-1.177-1.814,5.883,5.883,0,0,0-1.749-1.169,5.785,5.785,0,0,0-2.2-.42h-8.419V24.49h8.419a5.589,5.589,0,0,0,3.957-1.619,5.34,5.34,0,0,0,1.168-1.806,5.858,5.858,0,0,0,.419-2.24V11.807a6.078,6.078,0,0,0-.417-2.255m-3.571,3.787v3.934a7.729,7.729,0,0,1-.154,1.661,1.952,1.952,0,0,1-.485.938,2.238,2.238,0,0,1-1.019.52,6.605,6.605,0,0,1-1.78.192h-2.55V10.049h2.55a7.748,7.748,0,0,1,1.779.17,2.468,2.468,0,0,1,1.006.528,2.112,2.112,0,0,1,.5.927,8.032,8.032,0,0,1,.155,1.663" transform="translate(-88.202 355.443)"/><path d="M11.268,1.591H7.279V9.544a6.205,6.205,0,0,1-1.635-.2,1.874,1.874,0,0,1-.97-.508l-.025-.025a1.65,1.65,0,0,1-.481-.918l-.006-.026a6.746,6.746,0,0,1-.173-1.676v-4.1L0,0V7.745a6.025,6.025,0,0,0,.412,2.263,4.752,4.752,0,0,0,1.146,1.817,4.938,4.938,0,0,0,1.768,1.2,5.357,5.357,0,0,0,2.214.449l1.738.014v6.451h3.989V13.52l2.675.022v-4H11.268Z" transform="translate(127.997 360)"/></g><circle cx="4" cy="4" r="4" transform="translate(133 106)" fill="#22dc47"/></g></g></svg>