<svg xmlns="http://www.w3.org/2000/svg" width="64" height="64" viewBox="0 0 64 64"><g transform="translate(12397 8070)"><g transform="translate(-12397 -8070)" fill="#fff" stroke="#ddd" stroke-width="1" opacity="0"><rect width="64" height="64" rx="3" stroke="none"/><rect x="0.5" y="0.5" width="63" height="63" rx="2.5" fill="none"/></g><g transform="translate(-13779.949 -8675.66)" opacity="0.43"><path d="M24.2,5.253S23.824.7,22.95.648C21.841.577,21.1,3.663,20.873,5.158a6.375,6.375,0,0,1,3.323.095" transform="translate(1392.731 625.375)"/><path d="M22.225,10.911c2.133-3.305,1.273-7.957,1.027-9.587C23-.39,21.8-.491,20.394,1.324a61.853,61.853,0,0,1-4.121,5.031,12.873,12.873,0,0,0-3.624-.586A6.472,6.472,0,0,0,8.065,7.762a7.473,7.473,0,0,1-2.574,1.6C4,9.828.623,10.007.3,10.693c-1.228,1.876,1.681,6.483,2.412,7.4s5.651,1.932,6.9,2.211c2.4.53,2.635,2.943,3.406,3.97.017,0,.039.006.061.006,4.244.508,12.083-2.228,12.92-5.891a21.691,21.691,0,0,0-3.775-7.476" transform="translate(1401.949 625.66)"/></g></g></svg>