<svg xmlns="http://www.w3.org/2000/svg" width="64" height="64" viewBox="0 0 64 64"><g transform="translate(12327 8290)"><g transform="translate(-12327 -8290)" fill="#fff" stroke="#ddd" stroke-width="1" opacity="0"><rect width="64" height="64" rx="3" stroke="none"/><rect x="0.5" y="0.5" width="63" height="63" rx="2.5" fill="none"/></g><path d="M15.5,6.937A7,7,0,0,1,19,13v8H14.83a3,3,0,0,1-5.66,0H5V13A7,7,0,0,1,8.5,6.937,3.974,3.974,0,0,1,8.125,6H5V4H8.126a4,4,0,0,1,7.748,0H19V6H15.874a4.02,4.02,0,0,1-.373.937ZM12,14a1,1,0,0,0-1,1v5a1,1,0,0,0,2,0V15A1,1,0,0,0,12,14Zm0-7a2,2,0,1,0-2-2A2,2,0,0,0,12,7Z" transform="translate(-12307 -8270.002)" opacity="0.43"/></g></svg>