<svg xmlns="http://www.w3.org/2000/svg" width="64" height="64" viewBox="0 0 64 64"><g transform="translate(12397 8180)"><g transform="translate(-12397 -8180)" fill="#fff" stroke="#ddd" stroke-width="1" opacity="0"><rect width="64" height="64" rx="3" stroke="none"/><rect x="0.5" y="0.5" width="63" height="63" rx="2.5" fill="none"/></g><path d="M29.294,13.847l.35-3.629-2.881-.805C25.571,7.8,23.9,5.621,23.014,5.276a16.8,16.8,0,0,0-2.719-.4V3.007l2.3-.936V0H5.046L0,12.754l2.034,3.352H3.341a3.481,3.481,0,0,0,6.071,1.809,3.481,3.481,0,0,0,6.071-1.809h5.705a3.482,3.482,0,0,0,6.9,0h1.652L30,14.135ZM8.843,11.609H7.305V2.991H8.843Zm4.21,0H11.515V2.991h1.537Zm4.215,0H15.729V2.991h1.537Zm3.028-1.621V6.777a6.842,6.842,0,0,1,2.264.293c.879.34,1.919,2.473,1.919,2.473l-.45.622Z" transform="translate(-12380 -8158)" opacity="0.43"/></g></svg>