<svg xmlns="http://www.w3.org/2000/svg" width="64" height="64" viewBox="0 0 64 64"><g transform="translate(12327 7871)"><g transform="translate(-12327 -7871)" fill="#fff" stroke="#ddd" stroke-width="1" opacity="0"><rect width="64" height="64" rx="3" stroke="none"/><rect x="0.5" y="0.5" width="63" height="63" rx="2.5" fill="none"/></g><path d="M19.5,22.833H7.833V24a1.167,1.167,0,0,1-1.167,1.167H5.5A1.167,1.167,0,0,1,4.333,24V22.833H3.167V13.5H2V8.833H3.167v-3.5A2.333,2.333,0,0,1,5.5,3H21.833a2.333,2.333,0,0,1,2.333,2.333v3.5h1.167V13.5H24.167v9.333H23V24a1.167,1.167,0,0,1-1.167,1.167H20.667A1.167,1.167,0,0,1,19.5,24Zm-14-17.5v10.5H21.833V5.333Zm0,12.833V20.5h4.667V18.167Zm11.667,0V20.5h4.667V18.167Z" transform="translate(-12309 -7853)" fill="#2c2685"/></g></svg>