<svg xmlns="http://www.w3.org/2000/svg" width="64" height="64" viewBox="0 0 64 64"><g transform="translate(12188 8290)"><g transform="translate(-12188 -8290)" fill="#fff" stroke="#ddd" stroke-width="1" opacity="0"><rect width="64" height="64" rx="3" stroke="none"/><rect x="0.5" y="0.5" width="63" height="63" rx="2.5" fill="none"/></g><path d="M28.613,9.56a6.269,6.269,0,0,0-5.485-1.748c-.328-.968-.646-1.928-.951-2.918a.927.927,0,0,0-.108-.354c-.259-.854-.509-1.733-.75-2.661L22.6,1.9a.936.936,0,0,0,.932-.923.93.93,0,0,0-.923-.931L18.366,0l-.018,1.854,1.046.009c.267,1.051.541,2.029.823,2.969-.805,1.117-3.123,4.33-4.3,6.064A3.865,3.865,0,0,1,14.48,12.1L12.654,7.2h1.925a.927.927,0,1,0,0-1.854H11.222A4.222,4.222,0,0,1,9.957,5.21a1.055,1.055,0,0,1-.562-.352A.927.927,0,1,0,7.856,5.9a2.786,2.786,0,0,0,1.573,1.1,5.467,5.467,0,0,0,1.241.2l2.059,5.531c-.11.025-.215.047-.313.066a6.262,6.262,0,1,0,.079,1.869,11.051,11.051,0,0,0,1.646-.422.966.966,0,0,0,.13-.037.911.911,0,0,0,.106-.047,6.332,6.332,0,0,0,3.075-2.211c.926-1.359,2.436-3.473,3.461-4.9.148.452.3.9.45,1.351A6.3,6.3,0,0,0,19.755,9.56a6.266,6.266,0,1,0,8.858,0M6.266,18.392A4.4,4.4,0,1,1,10.533,12.9H5.809a.931.931,0,1,0,0,1.863H10.6a4.415,4.415,0,0,1-4.335,3.629M27.295,17.1a4.406,4.406,0,1,1-6.231-6.231,4.465,4.465,0,0,1,.907-.692c.446,1.294.906,2.644,1.325,3.935a.927.927,0,0,0,1.766-.562c-.49-1.528-.915-2.756-1.321-3.941q.218-.022.442-.022A4.4,4.4,0,0,1,27.295,17.1" transform="translate(-12171 -8268)" opacity="0.43"/></g></svg>