<svg xmlns="http://www.w3.org/2000/svg" width="64" height="64" viewBox="0 0 64 64"><g transform="translate(12258 8290)"><g transform="translate(-12258 -8290)" fill="#fff" stroke="#ddd" stroke-width="1" opacity="0"><rect width="64" height="64" rx="3" stroke="none"/><rect x="0.5" y="0.5" width="63" height="63" rx="2.5" fill="none"/></g><path d="M8.916,8.588l3.674,2.817a1.2,1.2,0,0,1-1.457,1.906l-2.6-1.99ZM7.552,0a2.31,2.31,0,1,1-2.31,2.31A2.311,2.311,0,0,1,7.552,0M7.61,13.409A1.006,1.006,0,0,0,8.031,14.5L9.88,16.1a2.235,2.235,0,0,1,.742,1.466l.4,5.412a1.444,1.444,0,0,1-2.879.213l-.382-5.1L4.748,15.5a2.753,2.753,0,0,1-.982-2.83L4.3,8.895,3.522,9.3,2.349,13.129a1.209,1.209,0,0,1-1.5.8,1.209,1.209,0,0,1-.8-1.5L1.261,8.5A2.195,2.195,0,0,1,2.3,7.233L4.65,6a4.784,4.784,0,0,1,1.782-.711A1.94,1.94,0,0,1,8.44,7.5ZM2.345,24.459a1.449,1.449,0,0,0,1.817-.933l1.946-6.043L4.344,15.968a4.138,4.138,0,0,1-.587-.6L1.416,22.642a1.447,1.447,0,0,0,.929,1.817" transform="translate(-12232.281 -8270.527)" fill-rule="evenodd" opacity="0.43"/></g></svg>