<svg xmlns="http://www.w3.org/2000/svg" width="64" height="64" viewBox="0 0 64 64"><g transform="translate(12119 7981)"><g transform="translate(-12119 -7981)" fill="#fff" stroke="#ddd" stroke-width="1" opacity="0"><rect width="64" height="64" rx="3" stroke="none"/><rect x="0.5" y="0.5" width="63" height="63" rx="2.5" fill="none"/></g><path d="M19.348,8.44h3.44l3.44,4.651v6.816H23.894a4.014,4.014,0,0,1-7.947,0H10.134a4.014,4.014,0,0,1-7.947,0H1V6.147A1.147,1.147,0,0,1,2.147,5H18.2a1.147,1.147,0,0,1,1.147,1.147Zm0,2.293v3.44h4.587v-.327l-2.3-3.113Z" transform="translate(-12101 -7963)" fill="#2c2685"/></g></svg>