<svg xmlns="http://www.w3.org/2000/svg" width="81.792" height="25.596" viewBox="0 0 81.792 25.596">
  <path id="패스_6316" data-name="패스 6316" d="M-22.968-7.092c0-9.144-13.248-5.616-13.248-11.268,0-2.412,1.836-3.564,4.212-3.492,2.592.072,4.068,1.62,4.212,3.312h4.536c-.36-4.284-3.744-6.8-8.532-6.8-5.112,0-8.6,2.736-8.6,7.128,0,9.216,13.284,5.292,13.284,11.34,0,2.124-1.62,3.672-4.5,3.672-2.844,0-4.284-1.656-4.464-3.708h-4.392c0,4.428,3.852,7.164,8.856,7.164C-26.028.252-22.968-3.348-22.968-7.092Zm1.368-14.58h6.7V0h4.1V-21.672h6.66V-25.02H-21.6ZM22-12.564a12.473,12.473,0,0,0-12.78-12.78,12.515,12.515,0,0,0-12.78,12.78A12.523,12.523,0,0,0,9.216.252,12.481,12.481,0,0,0,22-12.564Zm-21.348,0c0-5.652,3.6-9.18,8.568-9.18s8.568,3.528,8.568,9.18-3.6,9.252-8.568,9.252S.648-6.912.648-12.564ZM27.936-13.5v-8.172h4.536c3.2,0,4.644,1.512,4.644,4.1,0,2.52-1.44,4.068-4.644,4.068Zm13.392-4.068c0-4.068-2.916-7.452-8.856-7.452h-8.64V0h4.1V-10.152h4.536C38.988-10.152,41.328-14,41.328-17.568Z" transform="translate(40.464 25.344)" fill="#fff"/>
</svg>
