<svg xmlns="http://www.w3.org/2000/svg" width="97.884" height="25.596" viewBox="0 0 97.884 25.596">
  <path id="패스_6315" data-name="패스 6315" d="M-31.122-7.092c0-9.144-13.248-5.616-13.248-11.268,0-2.412,1.836-3.564,4.212-3.492,2.592.072,4.068,1.62,4.212,3.312h4.536c-.36-4.284-3.744-6.8-8.532-6.8-5.112,0-8.6,2.736-8.6,7.128,0,9.216,13.284,5.292,13.284,11.34,0,2.124-1.62,3.672-4.5,3.672-2.844,0-4.284-1.656-4.464-3.708h-4.392c0,4.428,3.852,7.164,8.856,7.164C-34.182.252-31.122-3.348-31.122-7.092Zm1.368-14.58h6.7V0h4.1V-21.672h6.66V-25.02h-17.46ZM6.534,0h4.32L1.89-25.056H-2.862L-11.826,0h4.284l1.8-5.112H4.734ZM3.582-8.46H-4.59l4.1-11.628ZM25.83-17.532c0,2.484-1.44,4.248-4.644,4.248H16.65v-8.388h4.536C24.39-21.672,25.83-20.052,25.83-17.532ZM12.546-25.02V0h4.1V-10.008h3.132L25.542,0h4.9L24.246-10.368a7.121,7.121,0,0,0,5.8-7.164c0-4.068-2.916-7.488-8.856-7.488Zm19.26,3.348h6.7V0h4.1V-21.672h6.66V-25.02H31.806Z" transform="translate(48.618 25.344)" fill="#fff"/>
</svg>
