<svg xmlns="http://www.w3.org/2000/svg" xmlns:xlink="http://www.w3.org/1999/xlink" width="74.596" height="46" viewBox="0 0 74.596 46"><defs><clipPath id="a"><rect width="42" height="42" transform="translate(-0.086 -0.086)" fill="#1c3a54"/></clipPath><clipPath id="b"><rect width="74.596" height="25.295" fill="#2f27af"/></clipPath></defs><g transform="translate(-157 -317)"><ellipse cx="28" cy="5" rx="28" ry="5" transform="translate(167 353)" fill="#2f27af" opacity="0.15"/><g transform="translate(174.086 317.086)"><g clip-path="url(#a)"><path d="M35.7,6.126A20.914,20.914,0,1,0,6.126,35.7,20.914,20.914,0,1,0,35.7,6.126M4.374,16.174a17.206,17.206,0,0,1,33.08,0,.742.742,0,0,1-1,.89,39.829,39.829,0,0,0-15.537-3.042A39.829,39.829,0,0,0,5.378,17.064a.742.742,0,0,1-1-.89m12.238,21.4a17.263,17.263,0,0,1-12.511-13,.744.744,0,0,1,.786-.9A13.514,13.514,0,0,1,17.541,36.812a.743.743,0,0,1-.929.763m4.3-12.478A4.083,4.083,0,1,1,25,21.014,4.088,4.088,0,0,1,20.914,25.1m4.3,12.478a.743.743,0,0,1-.929-.763A13.514,13.514,0,0,1,36.941,23.674a.744.744,0,0,1,.786.9,17.263,17.263,0,0,1-12.511,13" transform="translate(0 0)" fill="#1c3a54"/><path d="M196.817,195a2.888,2.888,0,1,0,2.888,2.888A2.891,2.891,0,0,0,196.817,195" transform="translate(-175.903 -176.874)" fill="#1c3a54"/></g></g><g transform="translate(157 324.853)"><g transform="translate(0 0)" clip-path="url(#b)"><path d="M7.451,24.791a1.718,1.718,0,0,0,0-2.429,13.755,13.755,0,0,1,0-19.431A1.717,1.717,0,0,0,5.022.5a17.194,17.194,0,0,0,0,24.289,1.718,1.718,0,0,0,2.429,0" transform="translate(0 0)" fill="#2f27af"/><path d="M25.433,29.218a1.718,1.718,0,0,0,0-2.429,6.877,6.877,0,0,1,0-9.715A1.717,1.717,0,1,0,23,14.645a10.316,10.316,0,0,0,0,14.573,1.718,1.718,0,0,0,2.429,0" transform="translate(-13.124 -9.284)" fill="#2f27af"/><path d="M194.517,24.791a1.718,1.718,0,0,1,0-2.429,13.755,13.755,0,0,0,0-19.431A1.717,1.717,0,1,1,196.945.5a17.194,17.194,0,0,1,0,24.289,1.717,1.717,0,0,1-2.429,0" transform="translate(-127.372 0)" fill="#2f27af"/><path d="M180.374,29.218a1.718,1.718,0,0,1,0-2.429,6.877,6.877,0,0,0,0-9.715,1.717,1.717,0,0,1,2.429-2.429,10.316,10.316,0,0,1,0,14.573,1.718,1.718,0,0,1-2.429,0" transform="translate(-118.087 -9.284)" fill="#2f27af"/></g></g></g></svg>