<svg xmlns="http://www.w3.org/2000/svg" width="26" height="26" viewBox="0 0 26 26"><g transform="translate(-971.625 -459.625)"><circle cx="12" cy="12" r="12" transform="translate(972.625 460.625)" fill="#2c2685"/><path d="M13,2A11,11,0,0,0,5.222,20.778,11,11,0,1,0,20.778,5.222,10.928,10.928,0,0,0,13,2m0-2A13,13,0,1,1,0,13,13,13,0,0,1,13,0Z" transform="translate(971.625 459.625)" fill="#fff"/><g transform="translate(975.843 463.843)"><path d="M0,0H17.562V17.562H0Z" fill="none"/><path d="M8.293,12.706l6.726-6.727,1.035,1.035L8.293,14.776,3.636,10.119,4.671,9.084Z" transform="translate(-0.975 -1.604)" fill="#fff"/><path d="M8.293,15.483,2.929,10.119,4.671,8.377,8.293,12l6.726-6.727,1.743,1.742Zm-3.95-5.364,3.95,3.95,7.055-7.055-.328-.328L8.293,13.413,4.671,9.791Z" transform="translate(-0.975 -1.604)" fill="#fff"/></g></g></svg>