<svg xmlns="http://www.w3.org/2000/svg" width="20" height="20" viewBox="0 0 20 20"><g transform="translate(-1300 -126)"><g transform="translate(4035 21566)"><g transform="translate(-2735 -21440)" fill="#ddd" opacity="0"><path d="M 19.5 19.5 L 0.5 19.5 L 0.5 0.5 L 19.5 0.5 L 19.5 19.5 Z" stroke="none"/><path d="M 1 1 L 1 19 L 19 19 L 19 1 L 1 1 M 0 0 L 20 0 L 20 20 L 0 20 L 0 0 Z" stroke="none" fill="#707070"/></g><g transform="translate(-4145.957 -21623.496)"><g transform="translate(1413.161 187.871)"><rect width="14" height="10" transform="translate(0.795 2.625)" fill="#ff9233"/><rect width="16" height="3" transform="translate(-0.205 -0.375)" fill="#ddd"/><g transform="translate(3.098 2.625)"><path d="M0,0H9.393V9.393H0Z" fill="none"/><path d="M7.522,4.522h2.739L6.739,9.61V6.088H4L7.522,1Z" transform="translate(-2.435 -0.609)" fill="#fff"/></g></g></g></g></g></svg>