<svg xmlns="http://www.w3.org/2000/svg" width="154.944" height="87.459" viewBox="0 0 154.944 87.459"><g transform="translate(-48 -172)"><path d="M5.4-13.465c-2.285,0-3.876,1.23-3.867,3.094C1.521-8.728,2.813-7.559,4.746-7.348v1.582c-1.494.053-2.918.062-4.131.053L.791-4.57A57.2,57.2,0,0,0,10.547-5.2L10.441-6.24c-1.362.2-2.848.334-4.307.413V-7.356c1.881-.237,3.138-1.4,3.146-3.015C9.272-12.234,7.682-13.465,5.4-13.465ZM2.83-10.371c-.018-1.213,1.046-2.021,2.566-2.021s2.575.809,2.584,2.021c-.009,1.187-1.055,2-2.584,2C3.876-8.376,2.813-9.185,2.83-10.371ZM2.9,1.072H13.395V-.088H4.289V-3.27H2.9Zm8.543-3.3h1.389V-7.717H15.17V-8.895H12.832v-5.291H11.443Zm6.062-11.039H16.134V-5.8h7.084V-7.365H26.91V-4.9H28.3v-9.3H26.91v2.514H23.218v-1.582H21.865v2.6H17.506Zm0,6.328V-9.58h4.359v2.637Zm.281,3.99H26.91V1.424H28.3v-5.5H17.787Zm5.432-5.555v-2.039H26.91v2.039Zm19.052-5.678H40.9V-2.479h1.371v-5.4h2.355v-1.16H42.271ZM30.089-11.145h9.316V-12.27H35.433v-1.916H34.062v1.916H30.089Zm.9,3.779c-.009,1.758,1.5,2.892,3.762,2.883,2.232.009,3.744-1.125,3.762-2.883-.018-1.775-1.529-2.918-3.762-2.918C32.489-10.283,30.977-9.141,30.986-7.365Zm1.318,0c-.009-1.116.967-1.837,2.443-1.828,1.459-.009,2.443.712,2.461,1.828-.018,1.1-1,1.811-2.461,1.793C33.271-5.555,32.3-6.267,32.3-7.365ZM32.5,1.09H42.992V-.07H33.851V-3.41H32.5ZM53.587-13.43c-2.338-.018-4.008,1.274-4.008,3.182s1.67,3.208,4.008,3.2c2.338.009,4.017-1.292,4.008-3.2C57.6-12.155,55.925-13.447,53.587-13.43ZM48.4-5.713l.193,1.178c1.3-.009,2.8-.018,4.395-.088V.949H54.36V-4.7a39.692,39.692,0,0,0,4.553-.536l-.088-1.037A74.266,74.266,0,0,1,48.4-5.713Zm2.531-4.535c-.018-1.213,1.1-2.074,2.654-2.057,1.573-.018,2.7.844,2.689,2.057.009,1.222-1.116,2.065-2.689,2.057C52.031-8.183,50.915-9.026,50.932-10.248ZM59.968,1.441h1.354V-14.186H59.968ZM76.032-14.2H74.643V1.424h1.389ZM63.463-2.672,64.237-1.6a8.067,8.067,0,0,0,4.025-4.834,7.826,7.826,0,0,0,4.061,4.553L73.1-2.953a6.994,6.994,0,0,1-4.184-6.152v-1.248h3.639v-1.125H68.913V-13.9H67.541v2.426H63.885v1.125h3.674v1.248A7.306,7.306,0,0,1,63.463-2.672ZM86.524-12.99H78.737v1.16h6.425a21.375,21.375,0,0,1-.431,4.184l1.389.105a23.531,23.531,0,0,0,.4-4.623ZM77.77-6.082l.141,1.143a62.037,62.037,0,0,0,9.826-.633l-.088-1.02c-1.626.229-3.419.352-5.15.422V-9.527H81.127v3.4C79.923-6.091,78.78-6.082,77.77-6.082ZM80.178,1.09H90.619V-.07H81.567V-3.5H80.178ZM88.7-2.443H90.11V-7.928h2.285V-9.105H90.11v-5.1H88.7ZM105.928-14.2h-1.318V1.424h1.318ZM92.375-2.742l.879,1.037a8.183,8.183,0,0,0,3.261-4.966,7.57,7.57,0,0,0,3.173,4.6l.844-1.02a7.662,7.662,0,0,1-3.375-6.645v-1.477h2.865v-1.143H92.814v1.143H95.82v1.477C95.829-6.9,94.555-4.043,92.375-2.742Zm6.451-4.693h2.637V.615h1.3V-13.816h-1.3v5.256H98.826Zm22.744.492H107.261v1.09H121.57ZM108.984-3.568h9.422v1.336H109V1.213h11.285v-1h-9.9V-1.283h9.387V-4.605H108.984Zm.088-9.158h9.264v1.283h-9.211v3.322h10.881v-1H110.5v-1.371h9.229v-3.234H109.072Zm21.74-.7c-2.338-.018-4.008,1.274-4.008,3.182s1.67,3.208,4.008,3.2c2.338.009,4.017-1.292,4.008-3.2C134.828-12.155,133.149-13.447,130.811-13.43Zm-5.186,7.717.193,1.178c1.3-.009,2.8-.018,4.395-.088V.949h1.371V-4.7a39.692,39.692,0,0,0,4.553-.536l-.088-1.037A74.266,74.266,0,0,1,125.626-5.713Zm2.531-4.535c-.018-1.213,1.1-2.074,2.654-2.057,1.573-.018,2.7.844,2.689,2.057.009,1.222-1.116,2.065-2.689,2.057C129.256-8.183,128.14-9.026,128.157-10.248Zm9.035,11.689h1.354V-14.186h-1.354Zm15.4-15.627h-1.371V-2.479h1.371v-5.4h2.355v-1.16h-2.355Zm-12.182,3.041h9.316V-12.27h-3.973v-1.916H144.38v1.916h-3.973Zm.9,3.779c-.009,1.758,1.5,2.892,3.762,2.883,2.232.009,3.744-1.125,3.762-2.883-.018-1.775-1.529-2.918-3.762-2.918C142.806-10.283,141.295-9.141,141.3-7.365Zm1.318,0c-.009-1.116.967-1.837,2.443-1.828,1.459-.009,2.443.712,2.461,1.828-.018,1.1-1,1.811-2.461,1.793C143.589-5.555,142.613-6.267,142.622-7.365Zm.193,8.455h10.494V-.07h-9.141V-3.41h-1.354ZM13.588,8.8H12.2v2.549H8.543V9.992H1.371v6.943H8.543V15.6H12.2v2.461h1.389ZM2.742,15.811V11.117H7.189v4.693Zm.422,5.66C3.155,23.334,5.15,24.389,8.4,24.389s5.238-1.055,5.238-2.918c0-1.881-2-2.962-5.238-2.953C5.15,18.509,3.155,19.59,3.164,21.471Zm1.371,0C4.526,20.293,6,19.607,8.4,19.59c2.391.018,3.867.7,3.867,1.881C12.27,22.6,10.793,23.3,8.4,23.3S4.526,22.6,4.535,21.471Zm4.008-7.031V12.488H12.2v1.951Zm21.039,1.916H15.343V17.5h6.434v1.846H17.084v4.869H27.841V19.344H23.131V17.5h6.451Zm-12.9-5.906h2.408v3.287H16.732v1.143H28.175V13.736H25.82V10.449h2.408V9.307H16.679Zm1.775,12.639V20.434h8.033v2.654Zm2-9.352V10.449h3.99v3.287Zm17.383-.158H36.488v2.057H30.054V16.76H44.292V15.635H37.841Zm-7-.229.492,1.055c2.452-.334,4.843-1.4,5.827-3.111.984,1.714,3.366,2.777,5.827,3.111l.492-1.055c-2.848-.316-5.625-1.811-5.625-3.832v-.6H36.47v.6C36.47,11.539,33.7,13.033,30.845,13.35Zm.932,5.783h9.334v1.441h-9.3v3.674H42.939v-1.09H33.183V21.611h9.281V18.061H31.777Zm25.539-9.7H46.47v1.125h9.439V12.4H46.5v4.254H57.65V15.512H47.894V13.49h9.422ZM44.747,19.414h6.434v5.045h1.371V19.414h6.5V18.307H44.747ZM64.819,11.7v-2H63.466v2a6.12,6.12,0,0,1-3.955,5.59l.756,1.107A6.987,6.987,0,0,0,64.16,14.2a6.764,6.764,0,0,0,3.718,3.911l.773-1.072A5.925,5.925,0,0,1,64.819,11.7Zm-2.5,12.393H72.782V22.93h-9.07V19.273H62.323Zm5.5-8.613h3.217v5.01H72.43V8.814H71.042v2.32H67.825v1.143h3.217v2.074H67.825Z" transform="translate(48 235)" fill="#fff"/><g transform="translate(-83 -188)"><g transform="translate(3.003)"><path d="M128.838,22.45a11.833,11.833,0,0,1-.254,2.684,3.732,3.732,0,0,1-.787,1.518,3.124,3.124,0,0,1-1.381.752,11.5,11.5,0,0,1-2.184.226,10.969,10.969,0,0,1-2.2-.225,2.9,2.9,0,0,1-1.4-.733,3.38,3.38,0,0,1-.774-1.537,10.084,10.084,0,0,1-.286-2.685V6.142h-5.823V25.288a8.481,8.481,0,0,0,2.413,5.971,7.939,7.939,0,0,0,2.691,1.763,8.632,8.632,0,0,0,3.338.633h4.025a8.96,8.96,0,0,0,3.37-.633,8.686,8.686,0,0,0,2.7-1.776,8.289,8.289,0,0,0,2.368-5.958V6.142h-5.823Z" transform="translate(58.157 356.234)" fill="#fff"/><path d="M192.586,8.537a7.957,7.957,0,0,0-2.691-1.763,8.633,8.633,0,0,0-3.338-.633h-4.025a8.96,8.96,0,0,0-3.369.633,8.681,8.681,0,0,0-2.7,1.776,8.871,8.871,0,0,0-1.742,2.639,8.807,8.807,0,0,0-.626,3.319V33.654h5.823V24.087h9.263v9.567H195V14.508a8.489,8.489,0,0,0-2.413-5.971m-3.41,8.809v.722h-9.263v-.722a11.839,11.839,0,0,1,.254-2.685,3.73,3.73,0,0,1,.786-1.518,3.126,3.126,0,0,1,1.381-.751,11.5,11.5,0,0,1,2.184-.226,10.974,10.974,0,0,1,2.2.225,2.9,2.9,0,0,1,1.4.733,3.387,3.387,0,0,1,.774,1.537,10.089,10.089,0,0,1,.286,2.685" transform="translate(21.111 356.246)" fill="#fff"/><path d="M66.807,24.088h4.818v3.677H67.9a9.784,9.784,0,0,1-2.736-.3,2.81,2.81,0,0,1-1.454-.763l-.037-.037a2.481,2.481,0,0,1-.721-1.377l-.009-.039a10.1,10.1,0,0,1-.26-2.515V17.06a10.492,10.492,0,0,1,.268-2.546,2.8,2.8,0,0,1,.741-1.433,3.311,3.311,0,0,1,1.48-.784,11.432,11.432,0,0,1,2.729-.264h8.22V6.142h-11.1a8.563,8.563,0,0,0-3.318.639,8.364,8.364,0,0,0-2.649,1.79,7.531,7.531,0,0,0-1.723,2.748,9.2,9.2,0,0,0-.625,3.414V25.065a9.048,9.048,0,0,0,.617,3.393,7.129,7.129,0,0,0,1.719,2.725,7.4,7.4,0,0,0,2.652,1.8,8.033,8.033,0,0,0,3.321.674l12.6.1V18.07h-10.8Z" transform="translate(93.187 356.234)" fill="#fff"/><path d="M254.606,31.762l-.025-.012a1.048,1.048,0,0,1-.041-.115l-.2-.615c-.125-.346-.281-.787-.479-1.379-.2-.531-.41-1.112-.624-1.76l-.016-.042c-.183-.46-.333-.925-.478-1.375L252.587,26l-.062-.16c-.187-.484-.349-.9-.455-1.272l-.04-.111c-.212-.463-.281-.674-.285-.682l-.053-.127c-.12-.241-.233-.469-.344-.749l-.042-.09c-.11-.2-.226-.4-.352-.6l.148-.1.255-.175a5.675,5.675,0,0,0,.98-.8,7.877,7.877,0,0,0,1.035-1.259,5.705,5.705,0,0,0,.715-2.142l.007-.061c.062-.722.13-2.172.13-3.257v-.8a8.175,8.175,0,0,0-.567-3.137l-.016-.037a9,9,0,0,0-1.386-2.126l-.094-.089c-.131-.106-.33-.306-.54-.517l-.118-.1c-.251-.169-.639-.422-1.109-.676l-.062-.03a11.369,11.369,0,0,0-1.733-.55l-.042-.01a13.1,13.1,0,0,0-2.459-.2H233.442V33.655h5.981V24.088h4.141c.4,0,.771.028,1.088.057a2.309,2.309,0,0,1,.5.2,3.438,3.438,0,0,1,.369.419l.031.07c.111.249.242.543.394.9l2.3,6.532a1.788,1.788,0,0,0,.818,1.148,2.251,2.251,0,0,0,1.15.213h3.866a.934.934,0,0,0,.994-.937,1.177,1.177,0,0,0-.386-.837Zm-6.458-17.029a6.183,6.183,0,0,1-.488,2.733l-.007.011c-.273.394-.882.594-1.807.594h-6.422V12.128H246a2.291,2.291,0,0,1,1.608.538,3.107,3.107,0,0,1,.536,2.066" transform="translate(-15.328 356.234)" fill="#fff"/><path d="M311.467,11.254l0-.009A8.765,8.765,0,0,0,309.7,8.525a8.822,8.822,0,0,0-2.623-1.753,8.674,8.674,0,0,0-3.3-.629H291.152V33.655h12.625a8.38,8.38,0,0,0,5.934-2.428,8.008,8.008,0,0,0,1.752-2.708,8.785,8.785,0,0,0,.629-3.358V14.636a9.114,9.114,0,0,0-.625-3.382m-5.355,5.679v5.9a11.591,11.591,0,0,1-.231,2.49,2.928,2.928,0,0,1-.728,1.407,3.357,3.357,0,0,1-1.528.779,9.9,9.9,0,0,1-2.669.287h-3.824V12h3.824a11.618,11.618,0,0,1,2.668.256,3.7,3.7,0,0,1,1.509.792,3.167,3.167,0,0,1,.747,1.39,12.047,12.047,0,0,1,.232,2.494" transform="translate(-50.76 356.234)" fill="#fff"/><path d="M16.9,2.386H10.915V14.312a9.3,9.3,0,0,1-2.452-.3,2.81,2.81,0,0,1-1.454-.763l-.037-.038a2.474,2.474,0,0,1-.721-1.376L6.241,11.8a10.115,10.115,0,0,1-.26-2.514V3.138L0,0V11.614a9.035,9.035,0,0,0,.618,3.393,7.126,7.126,0,0,0,1.719,2.725,7.4,7.4,0,0,0,2.652,1.8,8.032,8.032,0,0,0,3.321.673l2.606.021V29.9H16.9V20.273l4.012.033V14.314H16.9Z" transform="translate(127.997 360)" fill="#fff"/></g><circle cx="5" cy="5" r="5" transform="translate(268 380)" fill="#22dc47"/></g></g></svg>