<svg xmlns="http://www.w3.org/2000/svg" xmlns:xlink="http://www.w3.org/1999/xlink" width="137.554" height="40" viewBox="0 0 137.554 40"><defs><clipPath id="a"><path d="M17.695,0,.491,9.894,0,10.174,15.994,19.41a2.5,2.5,0,0,1,1.247,2.159V40L21.5,37.539V19.806a3.708,3.708,0,0,0-1.849-3.2l-11.1-6.408,2.441-1.411,10.657,6.142a4.592,4.592,0,0,1,2.294,3.969V36.127L28.2,33.669l0-17.733a3.707,3.707,0,0,0-1.849-3.2l-11.1-6.409,2.442-1.41,10.7,6.177a4.517,4.517,0,0,1,2.251,3.9V32.26L34.9,29.8V12.069a3.71,3.71,0,0,0-1.85-3.2Z" fill="none"/></clipPath><clipPath id="b"><path d="M6.781,43.054a1.53,1.53,0,0,0,.764,1.324l7.181,4.139V40.232a1.532,1.532,0,0,0-.763-1.323L6.774,34.758ZM.011,45.718a3.7,3.7,0,0,0,1.85,3.2l15.38,8.856v-4.9L5.517,46.113A2.5,2.5,0,0,1,4.27,43.951L4.258,30.406,0,27.947Z" transform="translate(0 -27.947)" fill="none"/></clipPath></defs><g transform="translate(-126 -707)"><path d="M288.568,36.621v2.147h10.953v2.852H288.568v2.1a1.941,1.941,0,0,0,1.935,1.743h9.018v2.948h-9.556a4.584,4.584,0,0,1-1.4-.211,4.844,4.844,0,0,1-3.448-4.582v-6.9a4.844,4.844,0,0,1,3.448-4.583,4.583,4.583,0,0,1,1.4-.212h9.556v2.948H290.5a1.941,1.941,0,0,0-1.935,1.743" transform="translate(-55.322 686.695)" fill="#fff"/><path d="M132.519,43.664H132.5a6.1,6.1,0,0,0-6.094,6.095v.021a6.1,6.1,0,0,0,6.094,6.1h.021a6.1,6.1,0,0,0,6.1-6.1v-.021a6.1,6.1,0,0,0-6.1-6.095m3.138,6.12a3.144,3.144,0,0,1-3.144,3.144H132.5a3.144,3.144,0,0,1-3.144-3.144v-.028a3.144,3.144,0,0,1,3.144-3.144h.017a3.144,3.144,0,0,1,3.144,3.144Z" transform="translate(45.613 679.232)" fill="#fff"/><rect width="3.443" height="16.484" transform="translate(166.583 718.623)" fill="#fff"/><path d="M255.633,45.465v2.948h-9.556a4.585,4.585,0,0,1-1.4-.211,4.847,4.847,0,0,1-3.448-4.582V31.929h3.448V43.721a1.942,1.942,0,0,0,1.935,1.743Z" transform="translate(-27.411 686.695)" fill="#fff"/><path d="M209.661,33.339a4.8,4.8,0,0,0-3.4-1.41h-9.549V48.413h3.442V41.529h6.05a4.774,4.774,0,0,0,3.461-8.19m-3.935,5.242h-5.576v-3.7h5.576a1.878,1.878,0,0,1,1.948,1.865,1.857,1.857,0,0,1-1.948,1.839" transform="translate(0.903 686.695)" fill="#fff"/><path d="M166.6,31.927H151.724v2.948h5.716V48.411h3.443V34.875H166.6Z" transform="translate(29.512 686.695)" fill="#fff"/><rect width="137.553" height="40" transform="translate(126 707)" fill="none"/><g transform="translate(126 707)"><g clip-path="url(#a)"><rect width="49.666" height="51.748" transform="translate(-16.665 8.942) rotate(-28.217)" fill="#fff"/></g></g><g transform="translate(126 717.174)" opacity="0.45"><g clip-path="url(#b)"><rect width="34.234" height="34.32" transform="translate(-16.473 11.54) rotate(-35.012)" fill="#fff"/></g></g><g transform="translate(186.034 738.505)" opacity="0.51"><path d="M188.3,87.513v.764a2.238,2.238,0,0,0,.51,1.516,2.059,2.059,0,0,0,1.162.72l-.523.45a2.064,2.064,0,0,1-1.037-.414,1.706,1.706,0,0,1-.668-.8,1.574,1.574,0,0,1-.659.8,2.189,2.189,0,0,1-1.03.418l-.539-.45a2.032,2.032,0,0,0,1.175-.724,2.251,2.251,0,0,0,.507-1.512v-.764Zm2.115,4.592h-3.763v-.619h4.85v2.469h-1.086ZM191.505,91h-1.086V87.513h1.086Z" transform="translate(-178.854 -87.256)" fill="#fff"/><path d="M205.733,87.61h1.392v-.8h1.085v.8h1.4v.612h-.748a1.533,1.533,0,0,1,.345.47,1.314,1.314,0,0,1,.129.575,1.378,1.378,0,0,1-.317.885,1.7,1.7,0,0,1-.809.555v.49h.836a4.277,4.277,0,0,0,.644-.044,3.258,3.258,0,0,0,.491-.109V87.072h1.085v6.442h-1.085V91.575a2.5,2.5,0,0,1-.535.169,3.148,3.148,0,0,1-.639.064h-3.314V91.2h1.432v-.49a1.669,1.669,0,0,1-.8-.555,1.384,1.384,0,0,1-.313-.885,1.313,1.313,0,0,1,.128-.575,1.539,1.539,0,0,1,.346-.47h-.748Zm1.5,1a1.239,1.239,0,0,0,0,1.315.483.483,0,0,0,.881,0,1.265,1.265,0,0,0,0-1.315.485.485,0,0,0-.881,0" transform="translate(-191.595 -86.814)" fill="#fff"/><path d="M225.582,87.514V88.72a2.624,2.624,0,0,0,.511,1.633,1.939,1.939,0,0,0,1.169.8l-.531.466a1.942,1.942,0,0,1-1.045-.45,1.739,1.739,0,0,1-.652-.869,1.673,1.673,0,0,1-.643.865,2.021,2.021,0,0,1-1.054.455l-.531-.466a1.927,1.927,0,0,0,1.167-.808,2.651,2.651,0,0,0,.506-1.629V87.514Zm3.032,1.375H229.7V89.5h-1.086v4.456h-1.085V87.514h1.085Z" transform="translate(-202.404 -87.256)" fill="#fff"/><path d="M251.729,87.947a1.818,1.818,0,0,1,0,2.638,1.982,1.982,0,0,1-2.726,0,1.818,1.818,0,0,1,0-2.638,1.982,1.982,0,0,1,2.726,0m-1.955,2.211a.728.728,0,0,0,.6.358.711.711,0,0,0,.587-.362,1.539,1.539,0,0,0,.25-.893,1.523,1.523,0,0,0-.25-.884.669.669,0,0,0-1.189,0,1.541,1.541,0,0,0-.25.9,1.487,1.487,0,0,0,.253.88m4.195-1.283h1.085V89.5h-1.085v4.391h-1.086V87.444h1.086Z" transform="translate(-218.591 -87.186)" fill="#fff"/><path d="M271.078,87.947a1.816,1.816,0,0,1,0,2.638,1.992,1.992,0,0,1-2.734,0,1.818,1.818,0,0,1,0-2.638,1.992,1.992,0,0,1,2.734,0m-1.963,2.211a.728.728,0,0,0,.6.358.721.721,0,0,0,.591-.362,1.517,1.517,0,0,0,.253-.893,1.5,1.5,0,0,0-.253-.884.671.671,0,0,0-1.191,0,1.536,1.536,0,0,0-.253.9,1.49,1.49,0,0,0,.253.88m4.34,3.728h-1.086V87.444h1.086Z" transform="translate(-230.807 -87.186)" fill="#fff"/><path d="M292.449,92.566h-6.008v-.619H288.9V90.661a2.165,2.165,0,0,1-1.17-.68,1.72,1.72,0,0,1-.463-1.178,1.752,1.752,0,0,1,.635-1.359,2.383,2.383,0,0,1,3.076,0,1.757,1.757,0,0,1,.632,1.359,1.732,1.732,0,0,1-.458,1.178,2.15,2.15,0,0,1-1.167.68v1.286h2.462Zm-3.772-4.689a1.524,1.524,0,0,0,0,1.85.962.962,0,0,0,1.528,0,1.522,1.522,0,0,0,0-1.85.962.962,0,0,0-1.528,0" transform="translate(-242.596 -86.857)" fill="#fff"/><path d="M367.542,92.965h-6.007v-.619h6.007Zm-2.461-5.452v.7a2,2,0,0,0,.8,1.624,2.7,2.7,0,0,0,1.576.675l-.482.467a3.213,3.213,0,0,1-1.459-.4,1.877,1.877,0,0,1-.977-.937,1.81,1.81,0,0,1-.969.941,3.25,3.25,0,0,1-1.468.394l-.483-.467a2.7,2.7,0,0,0,1.576-.675,2,2,0,0,0,.8-1.624v-.7Z" transform="translate(-290.023 -87.256)" fill="#fff"/><path d="M347.107,87.517v3.641h-1.022v-1.72h-.667v.144h-1.439v.845h1.671v.611H342.9V89.662a.657.657,0,0,1,.194-.5.746.746,0,0,1,.531-.18h.722v-.845h-1.519v-.618h2.59v1.311h.667V87.517Z" transform="translate(-278.209 -87.258)" fill="#fff"/><rect width="1.022" height="3.643" transform="translate(69.38 0.257)" fill="#fff"/><path d="M344.836,99.245h3.957v1.729h1.086V98.625h-5.042Z" transform="translate(-279.477 -94.274)" fill="#fff"/><path d="M330.752,99.738v.6h-4.617v-.933a.692.692,0,0,1,.21-.523.756.756,0,0,1,.547-.2h2.644v-.458h-3.472v-.6h4.56v1.641h-3.4v.475Z" transform="translate(-267.62 -93.642)" fill="#fff"/><path d="M330.356,89.089H329.5v-.973h.78v-.6h-4.826v.6h.789v.973h-.86v.6h4.97Zm-1.938,0h-1.086v-.973h1.086Z" transform="translate(-267.193 -87.256)" fill="#fff"/><rect width="6.152" height="0.603" transform="translate(57.607 2.894)" fill="#fff"/><path d="M311.447,87.517v6.44h-1.085V91.3a2.493,2.493,0,0,1-.51.191,2.66,2.66,0,0,1-.641.076h-3.055V88.223a.679.679,0,0,1,.2-.515.743.743,0,0,1,.537-.191h2.6v.61H307.24v1.085h2.221v.619H307.24v1.118h2.036a3.926,3.926,0,0,0,.611-.044,2.388,2.388,0,0,0,.474-.117V87.517Z" transform="translate(-255.046 -87.258)" fill="#fff"/><path d="M167.426,97.075v.611H170v2.308h1.086V97.686h2.566v-.611Z" transform="translate(-167.426 -93.295)" fill="#fff"/><path d="M173.79,89.872l-.515.466A3.444,3.444,0,0,1,171.846,90a1.919,1.919,0,0,1-.976-.818,1.836,1.836,0,0,1-.971.82,3.447,3.447,0,0,1-1.437.338l-.512-.466a2.754,2.754,0,0,0,1.6-.559,1.607,1.607,0,0,0,.763-1.178h-1.908v-.618h4.923v.618h-1.91a1.613,1.613,0,0,0,.768,1.178,2.755,2.755,0,0,0,1.6.559" transform="translate(-167.757 -87.258)" fill="#fff"/></g><path d="M362.415,31.929H357.5l-3.916,5.063H358.5Z" transform="translate(-98.861 686.695)" fill="#fff"/><path d="M338.156,36.992l-3.916-5.063h-4.916L335.7,40.17l-6.376,8.242h4.916l3.916-5.063,3.916,5.063h4.915l-6.37-8.242Z" transform="translate(-83.434 686.695)" fill="#fff"/><rect width="137.553" height="40" transform="translate(126 707)" fill="none"/></g></svg>