<svg xmlns="http://www.w3.org/2000/svg" width="133.335" height="29.991" viewBox="0 0 133.335 29.991"><g transform="translate(-131 -360)"><g transform="translate(3.003)"><path d="M128.838,22.45a11.833,11.833,0,0,1-.254,2.684,3.732,3.732,0,0,1-.787,1.518,3.124,3.124,0,0,1-1.381.752,11.5,11.5,0,0,1-2.184.226,10.969,10.969,0,0,1-2.2-.225,2.9,2.9,0,0,1-1.4-.733,3.38,3.38,0,0,1-.774-1.537,10.084,10.084,0,0,1-.286-2.685V6.142h-5.823V25.288a8.481,8.481,0,0,0,2.413,5.971,7.939,7.939,0,0,0,2.691,1.763,8.632,8.632,0,0,0,3.338.633h4.025a8.96,8.96,0,0,0,3.37-.633,8.686,8.686,0,0,0,2.7-1.776,8.289,8.289,0,0,0,2.368-5.958V6.142h-5.823Z" transform="translate(58.157 356.234)" fill="#fff"/><path d="M192.586,8.537a7.957,7.957,0,0,0-2.691-1.763,8.633,8.633,0,0,0-3.338-.633h-4.025a8.96,8.96,0,0,0-3.369.633,8.681,8.681,0,0,0-2.7,1.776,8.871,8.871,0,0,0-1.742,2.639,8.807,8.807,0,0,0-.626,3.319V33.654h5.823V24.087h9.263v9.567H195V14.508a8.489,8.489,0,0,0-2.413-5.971m-3.41,8.809v.722h-9.263v-.722a11.839,11.839,0,0,1,.254-2.685,3.73,3.73,0,0,1,.786-1.518,3.126,3.126,0,0,1,1.381-.751,11.5,11.5,0,0,1,2.184-.226,10.974,10.974,0,0,1,2.2.225,2.9,2.9,0,0,1,1.4.733,3.387,3.387,0,0,1,.774,1.537,10.089,10.089,0,0,1,.286,2.685" transform="translate(21.111 356.246)" fill="#fff"/><path d="M66.807,24.088h4.818v3.677H67.9a9.784,9.784,0,0,1-2.736-.3,2.81,2.81,0,0,1-1.454-.763l-.037-.037a2.481,2.481,0,0,1-.721-1.377l-.009-.039a10.1,10.1,0,0,1-.26-2.515V17.06a10.492,10.492,0,0,1,.268-2.546,2.8,2.8,0,0,1,.741-1.433,3.311,3.311,0,0,1,1.48-.784,11.432,11.432,0,0,1,2.729-.264h8.22V6.142h-11.1a8.563,8.563,0,0,0-3.318.639,8.364,8.364,0,0,0-2.649,1.79,7.531,7.531,0,0,0-1.723,2.748,9.2,9.2,0,0,0-.625,3.414V25.065a9.048,9.048,0,0,0,.617,3.393,7.129,7.129,0,0,0,1.719,2.725,7.4,7.4,0,0,0,2.652,1.8,8.033,8.033,0,0,0,3.321.674l12.6.1V18.07h-10.8Z" transform="translate(93.187 356.234)" fill="#fff"/><path d="M254.606,31.762l-.025-.012a1.048,1.048,0,0,1-.041-.115l-.2-.615c-.125-.346-.281-.787-.479-1.379-.2-.531-.41-1.112-.624-1.76l-.016-.042c-.183-.46-.333-.925-.478-1.375L252.587,26l-.062-.16c-.187-.484-.349-.9-.455-1.272l-.04-.111c-.212-.463-.281-.674-.285-.682l-.053-.127c-.12-.241-.233-.469-.344-.749l-.042-.09c-.11-.2-.226-.4-.352-.6l.148-.1.255-.175a5.675,5.675,0,0,0,.98-.8,7.877,7.877,0,0,0,1.035-1.259,5.705,5.705,0,0,0,.715-2.142l.007-.061c.062-.722.13-2.172.13-3.257v-.8a8.175,8.175,0,0,0-.567-3.137l-.016-.037a9,9,0,0,0-1.386-2.126l-.094-.089c-.131-.106-.33-.306-.54-.517l-.118-.1c-.251-.169-.639-.422-1.109-.676l-.062-.03a11.369,11.369,0,0,0-1.733-.55l-.042-.01a13.1,13.1,0,0,0-2.459-.2H233.442V33.655h5.981V24.088h4.141c.4,0,.771.028,1.088.057a2.309,2.309,0,0,1,.5.2,3.438,3.438,0,0,1,.369.419l.031.07c.111.249.242.543.394.9l2.3,6.532a1.788,1.788,0,0,0,.818,1.148,2.251,2.251,0,0,0,1.15.213h3.866a.934.934,0,0,0,.994-.937,1.177,1.177,0,0,0-.386-.837Zm-6.458-17.029a6.183,6.183,0,0,1-.488,2.733l-.007.011c-.273.394-.882.594-1.807.594h-6.422V12.128H246a2.291,2.291,0,0,1,1.608.538,3.107,3.107,0,0,1,.536,2.066" transform="translate(-15.328 356.234)" fill="#fff"/><path d="M311.467,11.254l0-.009A8.765,8.765,0,0,0,309.7,8.525a8.822,8.822,0,0,0-2.623-1.753,8.674,8.674,0,0,0-3.3-.629H291.152V33.655h12.625a8.38,8.38,0,0,0,5.934-2.428,8.008,8.008,0,0,0,1.752-2.708,8.785,8.785,0,0,0,.629-3.358V14.636a9.114,9.114,0,0,0-.625-3.382m-5.355,5.679v5.9a11.591,11.591,0,0,1-.231,2.49,2.928,2.928,0,0,1-.728,1.407,3.357,3.357,0,0,1-1.528.779,9.9,9.9,0,0,1-2.669.287h-3.824V12h3.824a11.618,11.618,0,0,1,2.668.256,3.7,3.7,0,0,1,1.509.792,3.167,3.167,0,0,1,.747,1.39,12.047,12.047,0,0,1,.232,2.494" transform="translate(-50.76 356.234)" fill="#fff"/><path d="M16.9,2.386H10.915V14.312a9.3,9.3,0,0,1-2.452-.3,2.81,2.81,0,0,1-1.454-.763l-.037-.038a2.474,2.474,0,0,1-.721-1.376L6.241,11.8a10.115,10.115,0,0,1-.26-2.514V3.138L0,0V11.614a9.035,9.035,0,0,0,.618,3.393,7.126,7.126,0,0,0,1.719,2.725,7.4,7.4,0,0,0,2.652,1.8,8.032,8.032,0,0,0,3.321.673l2.606.021V29.9H16.9V20.273l4.012.033V14.314H16.9Z" transform="translate(127.997 360)" fill="#fff"/></g></g></svg>